<?xml version="1.0" encoding="utf-8" standalone="no"?>
<!DOCTYPE svg PUBLIC "-//W3C//DTD SVG 1.1//EN"
  "http://www.w3.org/Graphics/SVG/1.1/DTD/svg11.dtd">
<svg xmlns:xlink="http://www.w3.org/1999/xlink" width="1728pt" height="432pt" viewBox="0 0 1728 432" xmlns="http://www.w3.org/2000/svg" version="1.1">
 <metadata>
  <rdf:RDF xmlns:dc="http://purl.org/dc/elements/1.1/" xmlns:cc="http://creativecommons.org/ns#" xmlns:rdf="http://www.w3.org/1999/02/22-rdf-syntax-ns#">
   <cc:Work>
    <dc:type rdf:resource="http://purl.org/dc/dcmitype/StillImage"/>
    <dc:date>2022-07-31T03:16:22.013948</dc:date>
    <dc:format>image/svg+xml</dc:format>
    <dc:creator>
     <cc:Agent>
      <dc:title>Matplotlib v3.5.1, https://matplotlib.org/</dc:title>
     </cc:Agent>
    </dc:creator>
   </cc:Work>
  </rdf:RDF>
 </metadata>
 <defs>
  <style type="text/css">*{stroke-linejoin: round; stroke-linecap: butt}</style>
 </defs>
 <g id="figure_1">
  <g id="patch_1">
   <path d="M 0 432 
L 1728 432 
L 1728 0 
L 0 0 
z
" style="fill: #ffffff"/>
  </g>
  <g id="axes_1">
   <g id="patch_2">
    <path d="M 216 378 
L 1555.2 378 
L 1555.2 51.84 
L 216 51.84 
z
" style="fill: #eaeaf2"/>
   </g>
   <g id="matplotlib.axis_1">
    <g id="xtick_1">
     <g id="line2d_1">
      <path d="M 230.047552 378 
L 230.047552 51.84 
" clip-path="url(#p808cf59957)" style="fill: none; stroke: #ffffff; stroke-linecap: round"/>
     </g>
     <g id="text_1">
      <!-- 30 -->
      <g style="fill: #262626" transform="translate(223.930521 395.373594)scale(0.11 -0.11)">
       <defs>
        <path id="ArialMT-33" d="M 269 1209 
L 831 1284 
Q 928 806 1161 595 
Q 1394 384 1728 384 
Q 2125 384 2398 659 
Q 2672 934 2672 1341 
Q 2672 1728 2419 1979 
Q 2166 2231 1775 2231 
Q 1616 2231 1378 2169 
L 1441 2663 
Q 1497 2656 1531 2656 
Q 1891 2656 2178 2843 
Q 2466 3031 2466 3422 
Q 2466 3731 2256 3934 
Q 2047 4138 1716 4138 
Q 1388 4138 1169 3931 
Q 950 3725 888 3313 
L 325 3413 
Q 428 3978 793 4289 
Q 1159 4600 1703 4600 
Q 2078 4600 2393 4439 
Q 2709 4278 2876 4000 
Q 3044 3722 3044 3409 
Q 3044 3113 2884 2869 
Q 2725 2625 2413 2481 
Q 2819 2388 3044 2092 
Q 3269 1797 3269 1353 
Q 3269 753 2831 336 
Q 2394 -81 1725 -81 
Q 1122 -81 723 278 
Q 325 638 269 1209 
z
" transform="scale(0.015625)"/>
        <path id="ArialMT-30" d="M 266 2259 
Q 266 3072 433 3567 
Q 600 4063 929 4331 
Q 1259 4600 1759 4600 
Q 2128 4600 2406 4451 
Q 2684 4303 2865 4023 
Q 3047 3744 3150 3342 
Q 3253 2941 3253 2259 
Q 3253 1453 3087 958 
Q 2922 463 2592 192 
Q 2263 -78 1759 -78 
Q 1097 -78 719 397 
Q 266 969 266 2259 
z
M 844 2259 
Q 844 1131 1108 757 
Q 1372 384 1759 384 
Q 2147 384 2411 759 
Q 2675 1134 2675 2259 
Q 2675 3391 2411 3762 
Q 2147 4134 1753 4134 
Q 1366 4134 1134 3806 
Q 844 3388 844 2259 
z
" transform="scale(0.015625)"/>
       </defs>
       <use xlink:href="#ArialMT-33"/>
       <use xlink:href="#ArialMT-30" x="55.615234"/>
      </g>
     </g>
    </g>
    <g id="xtick_2">
     <g id="line2d_2">
      <path d="M 386.131469 378 
L 386.131469 51.84 
" clip-path="url(#p808cf59957)" style="fill: none; stroke: #ffffff; stroke-linecap: round"/>
     </g>
     <g id="text_2">
      <!-- 35 -->
      <g style="fill: #262626" transform="translate(380.014437 395.373594)scale(0.11 -0.11)">
       <defs>
        <path id="ArialMT-35" d="M 266 1200 
L 856 1250 
Q 922 819 1161 601 
Q 1400 384 1738 384 
Q 2144 384 2425 690 
Q 2706 997 2706 1503 
Q 2706 1984 2436 2262 
Q 2166 2541 1728 2541 
Q 1456 2541 1237 2417 
Q 1019 2294 894 2097 
L 366 2166 
L 809 4519 
L 3088 4519 
L 3088 3981 
L 1259 3981 
L 1013 2750 
Q 1425 3038 1878 3038 
Q 2478 3038 2890 2622 
Q 3303 2206 3303 1553 
Q 3303 931 2941 478 
Q 2500 -78 1738 -78 
Q 1113 -78 717 272 
Q 322 622 266 1200 
z
" transform="scale(0.015625)"/>
       </defs>
       <use xlink:href="#ArialMT-33"/>
       <use xlink:href="#ArialMT-35" x="55.615234"/>
      </g>
     </g>
    </g>
    <g id="xtick_3">
     <g id="line2d_3">
      <path d="M 542.215385 378 
L 542.215385 51.84 
" clip-path="url(#p808cf59957)" style="fill: none; stroke: #ffffff; stroke-linecap: round"/>
     </g>
     <g id="text_3">
      <!-- 40 -->
      <g style="fill: #262626" transform="translate(536.098353 395.373594)scale(0.11 -0.11)">
       <defs>
        <path id="ArialMT-34" d="M 2069 0 
L 2069 1097 
L 81 1097 
L 81 1613 
L 2172 4581 
L 2631 4581 
L 2631 1613 
L 3250 1613 
L 3250 1097 
L 2631 1097 
L 2631 0 
L 2069 0 
z
M 2069 1613 
L 2069 3678 
L 634 1613 
L 2069 1613 
z
" transform="scale(0.015625)"/>
       </defs>
       <use xlink:href="#ArialMT-34"/>
       <use xlink:href="#ArialMT-30" x="55.615234"/>
      </g>
     </g>
    </g>
    <g id="xtick_4">
     <g id="line2d_4">
      <path d="M 698.299301 378 
L 698.299301 51.84 
" clip-path="url(#p808cf59957)" style="fill: none; stroke: #ffffff; stroke-linecap: round"/>
     </g>
     <g id="text_4">
      <!-- 45 -->
      <g style="fill: #262626" transform="translate(692.182269 395.373594)scale(0.11 -0.11)">
       <use xlink:href="#ArialMT-34"/>
       <use xlink:href="#ArialMT-35" x="55.615234"/>
      </g>
     </g>
    </g>
    <g id="xtick_5">
     <g id="line2d_5">
      <path d="M 854.383217 378 
L 854.383217 51.84 
" clip-path="url(#p808cf59957)" style="fill: none; stroke: #ffffff; stroke-linecap: round"/>
     </g>
     <g id="text_5">
      <!-- 50 -->
      <g style="fill: #262626" transform="translate(848.266186 395.373594)scale(0.11 -0.11)">
       <use xlink:href="#ArialMT-35"/>
       <use xlink:href="#ArialMT-30" x="55.615234"/>
      </g>
     </g>
    </g>
    <g id="xtick_6">
     <g id="line2d_6">
      <path d="M 1010.467133 378 
L 1010.467133 51.84 
" clip-path="url(#p808cf59957)" style="fill: none; stroke: #ffffff; stroke-linecap: round"/>
     </g>
     <g id="text_6">
      <!-- 55 -->
      <g style="fill: #262626" transform="translate(1004.350102 395.373594)scale(0.11 -0.11)">
       <use xlink:href="#ArialMT-35"/>
       <use xlink:href="#ArialMT-35" x="55.615234"/>
      </g>
     </g>
    </g>
    <g id="xtick_7">
     <g id="line2d_7">
      <path d="M 1166.551049 378 
L 1166.551049 51.84 
" clip-path="url(#p808cf59957)" style="fill: none; stroke: #ffffff; stroke-linecap: round"/>
     </g>
     <g id="text_7">
      <!-- 60 -->
      <g style="fill: #262626" transform="translate(1160.434018 395.373594)scale(0.11 -0.11)">
       <defs>
        <path id="ArialMT-36" d="M 3184 3459 
L 2625 3416 
Q 2550 3747 2413 3897 
Q 2184 4138 1850 4138 
Q 1581 4138 1378 3988 
Q 1113 3794 959 3422 
Q 806 3050 800 2363 
Q 1003 2672 1297 2822 
Q 1591 2972 1913 2972 
Q 2475 2972 2870 2558 
Q 3266 2144 3266 1488 
Q 3266 1056 3080 686 
Q 2894 316 2569 119 
Q 2244 -78 1831 -78 
Q 1128 -78 684 439 
Q 241 956 241 2144 
Q 241 3472 731 4075 
Q 1159 4600 1884 4600 
Q 2425 4600 2770 4297 
Q 3116 3994 3184 3459 
z
M 888 1484 
Q 888 1194 1011 928 
Q 1134 663 1356 523 
Q 1578 384 1822 384 
Q 2178 384 2434 671 
Q 2691 959 2691 1453 
Q 2691 1928 2437 2201 
Q 2184 2475 1800 2475 
Q 1419 2475 1153 2201 
Q 888 1928 888 1484 
z
" transform="scale(0.015625)"/>
       </defs>
       <use xlink:href="#ArialMT-36"/>
       <use xlink:href="#ArialMT-30" x="55.615234"/>
      </g>
     </g>
    </g>
    <g id="xtick_8">
     <g id="line2d_8">
      <path d="M 1322.634965 378 
L 1322.634965 51.84 
" clip-path="url(#p808cf59957)" style="fill: none; stroke: #ffffff; stroke-linecap: round"/>
     </g>
     <g id="text_8">
      <!-- 65 -->
      <g style="fill: #262626" transform="translate(1316.517934 395.373594)scale(0.11 -0.11)">
       <use xlink:href="#ArialMT-36"/>
       <use xlink:href="#ArialMT-35" x="55.615234"/>
      </g>
     </g>
    </g>
    <g id="xtick_9">
     <g id="line2d_9">
      <path d="M 1478.718881 378 
L 1478.718881 51.84 
" clip-path="url(#p808cf59957)" style="fill: none; stroke: #ffffff; stroke-linecap: round"/>
     </g>
     <g id="text_9">
      <!-- 70 -->
      <g style="fill: #262626" transform="translate(1472.60185 395.373594)scale(0.11 -0.11)">
       <defs>
        <path id="ArialMT-37" d="M 303 3981 
L 303 4522 
L 3269 4522 
L 3269 4084 
Q 2831 3619 2401 2847 
Q 1972 2075 1738 1259 
Q 1569 684 1522 0 
L 944 0 
Q 953 541 1156 1306 
Q 1359 2072 1739 2783 
Q 2119 3494 2547 3981 
L 303 3981 
z
" transform="scale(0.015625)"/>
       </defs>
       <use xlink:href="#ArialMT-37"/>
       <use xlink:href="#ArialMT-30" x="55.615234"/>
      </g>
     </g>
    </g>
    <g id="text_10">
     <!-- age -->
     <g style="fill: #262626" transform="translate(875.590312 410.008594)scale(0.12 -0.12)">
      <defs>
       <path id="ArialMT-61" d="M 2588 409 
Q 2275 144 1986 34 
Q 1697 -75 1366 -75 
Q 819 -75 525 192 
Q 231 459 231 875 
Q 231 1119 342 1320 
Q 453 1522 633 1644 
Q 813 1766 1038 1828 
Q 1203 1872 1538 1913 
Q 2219 1994 2541 2106 
Q 2544 2222 2544 2253 
Q 2544 2597 2384 2738 
Q 2169 2928 1744 2928 
Q 1347 2928 1158 2789 
Q 969 2650 878 2297 
L 328 2372 
Q 403 2725 575 2942 
Q 747 3159 1072 3276 
Q 1397 3394 1825 3394 
Q 2250 3394 2515 3294 
Q 2781 3194 2906 3042 
Q 3031 2891 3081 2659 
Q 3109 2516 3109 2141 
L 3109 1391 
Q 3109 606 3145 398 
Q 3181 191 3288 0 
L 2700 0 
Q 2613 175 2588 409 
z
M 2541 1666 
Q 2234 1541 1622 1453 
Q 1275 1403 1131 1340 
Q 988 1278 909 1158 
Q 831 1038 831 891 
Q 831 666 1001 516 
Q 1172 366 1500 366 
Q 1825 366 2078 508 
Q 2331 650 2450 897 
Q 2541 1088 2541 1459 
L 2541 1666 
z
" transform="scale(0.015625)"/>
       <path id="ArialMT-67" d="M 319 -275 
L 866 -356 
Q 900 -609 1056 -725 
Q 1266 -881 1628 -881 
Q 2019 -881 2231 -725 
Q 2444 -569 2519 -288 
Q 2563 -116 2559 434 
Q 2191 0 1641 0 
Q 956 0 581 494 
Q 206 988 206 1678 
Q 206 2153 378 2554 
Q 550 2956 876 3175 
Q 1203 3394 1644 3394 
Q 2231 3394 2613 2919 
L 2613 3319 
L 3131 3319 
L 3131 450 
Q 3131 -325 2973 -648 
Q 2816 -972 2473 -1159 
Q 2131 -1347 1631 -1347 
Q 1038 -1347 672 -1080 
Q 306 -813 319 -275 
z
M 784 1719 
Q 784 1066 1043 766 
Q 1303 466 1694 466 
Q 2081 466 2343 764 
Q 2606 1063 2606 1700 
Q 2606 2309 2336 2618 
Q 2066 2928 1684 2928 
Q 1309 2928 1046 2623 
Q 784 2319 784 1719 
z
" transform="scale(0.015625)"/>
       <path id="ArialMT-65" d="M 2694 1069 
L 3275 997 
Q 3138 488 2766 206 
Q 2394 -75 1816 -75 
Q 1088 -75 661 373 
Q 234 822 234 1631 
Q 234 2469 665 2931 
Q 1097 3394 1784 3394 
Q 2450 3394 2872 2941 
Q 3294 2488 3294 1666 
Q 3294 1616 3291 1516 
L 816 1516 
Q 847 969 1125 678 
Q 1403 388 1819 388 
Q 2128 388 2347 550 
Q 2566 713 2694 1069 
z
M 847 1978 
L 2700 1978 
Q 2663 2397 2488 2606 
Q 2219 2931 1791 2931 
Q 1403 2931 1139 2672 
Q 875 2413 847 1978 
z
" transform="scale(0.015625)"/>
      </defs>
      <use xlink:href="#ArialMT-61"/>
      <use xlink:href="#ArialMT-67" x="55.615234"/>
      <use xlink:href="#ArialMT-65" x="111.230469"/>
     </g>
    </g>
   </g>
   <g id="matplotlib.axis_2">
    <g id="ytick_1">
     <g id="line2d_10">
      <path d="M 216 378 
L 1555.2 378 
" clip-path="url(#p808cf59957)" style="fill: none; stroke: #ffffff; stroke-linecap: round"/>
     </g>
     <g id="text_11">
      <!-- 0 -->
      <g style="fill: #262626" transform="translate(200.382969 381.936797)scale(0.11 -0.11)">
       <use xlink:href="#ArialMT-30"/>
      </g>
     </g>
    </g>
    <g id="ytick_2">
     <g id="line2d_11">
      <path d="M 216 326.228571 
L 1555.2 326.228571 
" clip-path="url(#p808cf59957)" style="fill: none; stroke: #ffffff; stroke-linecap: round"/>
     </g>
     <g id="text_12">
      <!-- 20 -->
      <g style="fill: #262626" transform="translate(194.265938 330.165368)scale(0.11 -0.11)">
       <defs>
        <path id="ArialMT-32" d="M 3222 541 
L 3222 0 
L 194 0 
Q 188 203 259 391 
Q 375 700 629 1000 
Q 884 1300 1366 1694 
Q 2113 2306 2375 2664 
Q 2638 3022 2638 3341 
Q 2638 3675 2398 3904 
Q 2159 4134 1775 4134 
Q 1369 4134 1125 3890 
Q 881 3647 878 3216 
L 300 3275 
Q 359 3922 746 4261 
Q 1134 4600 1788 4600 
Q 2447 4600 2831 4234 
Q 3216 3869 3216 3328 
Q 3216 3053 3103 2787 
Q 2991 2522 2730 2228 
Q 2469 1934 1863 1422 
Q 1356 997 1212 845 
Q 1069 694 975 541 
L 3222 541 
z
" transform="scale(0.015625)"/>
       </defs>
       <use xlink:href="#ArialMT-32"/>
       <use xlink:href="#ArialMT-30" x="55.615234"/>
      </g>
     </g>
    </g>
    <g id="ytick_3">
     <g id="line2d_12">
      <path d="M 216 274.457143 
L 1555.2 274.457143 
" clip-path="url(#p808cf59957)" style="fill: none; stroke: #ffffff; stroke-linecap: round"/>
     </g>
     <g id="text_13">
      <!-- 40 -->
      <g style="fill: #262626" transform="translate(194.265938 278.39394)scale(0.11 -0.11)">
       <use xlink:href="#ArialMT-34"/>
       <use xlink:href="#ArialMT-30" x="55.615234"/>
      </g>
     </g>
    </g>
    <g id="ytick_4">
     <g id="line2d_13">
      <path d="M 216 222.685714 
L 1555.2 222.685714 
" clip-path="url(#p808cf59957)" style="fill: none; stroke: #ffffff; stroke-linecap: round"/>
     </g>
     <g id="text_14">
      <!-- 60 -->
      <g style="fill: #262626" transform="translate(194.265938 226.622511)scale(0.11 -0.11)">
       <use xlink:href="#ArialMT-36"/>
       <use xlink:href="#ArialMT-30" x="55.615234"/>
      </g>
     </g>
    </g>
    <g id="ytick_5">
     <g id="line2d_14">
      <path d="M 216 170.914286 
L 1555.2 170.914286 
" clip-path="url(#p808cf59957)" style="fill: none; stroke: #ffffff; stroke-linecap: round"/>
     </g>
     <g id="text_15">
      <!-- 80 -->
      <g style="fill: #262626" transform="translate(194.265938 174.851083)scale(0.11 -0.11)">
       <defs>
        <path id="ArialMT-38" d="M 1131 2484 
Q 781 2613 612 2850 
Q 444 3088 444 3419 
Q 444 3919 803 4259 
Q 1163 4600 1759 4600 
Q 2359 4600 2725 4251 
Q 3091 3903 3091 3403 
Q 3091 3084 2923 2848 
Q 2756 2613 2416 2484 
Q 2838 2347 3058 2040 
Q 3278 1734 3278 1309 
Q 3278 722 2862 322 
Q 2447 -78 1769 -78 
Q 1091 -78 675 323 
Q 259 725 259 1325 
Q 259 1772 486 2073 
Q 713 2375 1131 2484 
z
M 1019 3438 
Q 1019 3113 1228 2906 
Q 1438 2700 1772 2700 
Q 2097 2700 2305 2904 
Q 2513 3109 2513 3406 
Q 2513 3716 2298 3927 
Q 2084 4138 1766 4138 
Q 1444 4138 1231 3931 
Q 1019 3725 1019 3438 
z
M 838 1322 
Q 838 1081 952 856 
Q 1066 631 1291 507 
Q 1516 384 1775 384 
Q 2178 384 2440 643 
Q 2703 903 2703 1303 
Q 2703 1709 2433 1975 
Q 2163 2241 1756 2241 
Q 1359 2241 1098 1978 
Q 838 1716 838 1322 
z
" transform="scale(0.015625)"/>
       </defs>
       <use xlink:href="#ArialMT-38"/>
       <use xlink:href="#ArialMT-30" x="55.615234"/>
      </g>
     </g>
    </g>
    <g id="ytick_6">
     <g id="line2d_15">
      <path d="M 216 119.142857 
L 1555.2 119.142857 
" clip-path="url(#p808cf59957)" style="fill: none; stroke: #ffffff; stroke-linecap: round"/>
     </g>
     <g id="text_16">
      <!-- 100 -->
      <g style="fill: #262626" transform="translate(188.148906 123.079654)scale(0.11 -0.11)">
       <defs>
        <path id="ArialMT-31" d="M 2384 0 
L 1822 0 
L 1822 3584 
Q 1619 3391 1289 3197 
Q 959 3003 697 2906 
L 697 3450 
Q 1169 3672 1522 3987 
Q 1875 4303 2022 4600 
L 2384 4600 
L 2384 0 
z
" transform="scale(0.015625)"/>
       </defs>
       <use xlink:href="#ArialMT-31"/>
       <use xlink:href="#ArialMT-30" x="55.615234"/>
       <use xlink:href="#ArialMT-30" x="111.230469"/>
      </g>
     </g>
    </g>
    <g id="ytick_7">
     <g id="line2d_16">
      <path d="M 216 67.371429 
L 1555.2 67.371429 
" clip-path="url(#p808cf59957)" style="fill: none; stroke: #ffffff; stroke-linecap: round"/>
     </g>
     <g id="text_17">
      <!-- 120 -->
      <g style="fill: #262626" transform="translate(188.148906 71.308225)scale(0.11 -0.11)">
       <use xlink:href="#ArialMT-31"/>
       <use xlink:href="#ArialMT-32" x="55.615234"/>
       <use xlink:href="#ArialMT-30" x="111.230469"/>
      </g>
     </g>
    </g>
    <g id="text_18">
     <!-- Count -->
     <g style="fill: #262626" transform="translate(181.763906 230.929688)rotate(-90)scale(0.12 -0.12)">
      <defs>
       <path id="ArialMT-43" d="M 3763 1606 
L 4369 1453 
Q 4178 706 3683 314 
Q 3188 -78 2472 -78 
Q 1731 -78 1267 223 
Q 803 525 561 1097 
Q 319 1669 319 2325 
Q 319 3041 592 3573 
Q 866 4106 1370 4382 
Q 1875 4659 2481 4659 
Q 3169 4659 3637 4309 
Q 4106 3959 4291 3325 
L 3694 3184 
Q 3534 3684 3231 3912 
Q 2928 4141 2469 4141 
Q 1941 4141 1586 3887 
Q 1231 3634 1087 3207 
Q 944 2781 944 2328 
Q 944 1744 1114 1308 
Q 1284 872 1643 656 
Q 2003 441 2422 441 
Q 2931 441 3284 734 
Q 3638 1028 3763 1606 
z
" transform="scale(0.015625)"/>
       <path id="ArialMT-6f" d="M 213 1659 
Q 213 2581 725 3025 
Q 1153 3394 1769 3394 
Q 2453 3394 2887 2945 
Q 3322 2497 3322 1706 
Q 3322 1066 3130 698 
Q 2938 331 2570 128 
Q 2203 -75 1769 -75 
Q 1072 -75 642 372 
Q 213 819 213 1659 
z
M 791 1659 
Q 791 1022 1069 705 
Q 1347 388 1769 388 
Q 2188 388 2466 706 
Q 2744 1025 2744 1678 
Q 2744 2294 2464 2611 
Q 2184 2928 1769 2928 
Q 1347 2928 1069 2612 
Q 791 2297 791 1659 
z
" transform="scale(0.015625)"/>
       <path id="ArialMT-75" d="M 2597 0 
L 2597 488 
Q 2209 -75 1544 -75 
Q 1250 -75 995 37 
Q 741 150 617 320 
Q 494 491 444 738 
Q 409 903 409 1263 
L 409 3319 
L 972 3319 
L 972 1478 
Q 972 1038 1006 884 
Q 1059 663 1231 536 
Q 1403 409 1656 409 
Q 1909 409 2131 539 
Q 2353 669 2445 892 
Q 2538 1116 2538 1541 
L 2538 3319 
L 3100 3319 
L 3100 0 
L 2597 0 
z
" transform="scale(0.015625)"/>
       <path id="ArialMT-6e" d="M 422 0 
L 422 3319 
L 928 3319 
L 928 2847 
Q 1294 3394 1984 3394 
Q 2284 3394 2536 3286 
Q 2788 3178 2913 3003 
Q 3038 2828 3088 2588 
Q 3119 2431 3119 2041 
L 3119 0 
L 2556 0 
L 2556 2019 
Q 2556 2363 2490 2533 
Q 2425 2703 2258 2804 
Q 2091 2906 1866 2906 
Q 1506 2906 1245 2678 
Q 984 2450 984 1813 
L 984 0 
L 422 0 
z
" transform="scale(0.015625)"/>
       <path id="ArialMT-74" d="M 1650 503 
L 1731 6 
Q 1494 -44 1306 -44 
Q 1000 -44 831 53 
Q 663 150 594 308 
Q 525 466 525 972 
L 525 2881 
L 113 2881 
L 113 3319 
L 525 3319 
L 525 4141 
L 1084 4478 
L 1084 3319 
L 1650 3319 
L 1650 2881 
L 1084 2881 
L 1084 941 
Q 1084 700 1114 631 
Q 1144 563 1211 522 
Q 1278 481 1403 481 
Q 1497 481 1650 503 
z
" transform="scale(0.015625)"/>
      </defs>
      <use xlink:href="#ArialMT-43"/>
      <use xlink:href="#ArialMT-6f" x="72.216797"/>
      <use xlink:href="#ArialMT-75" x="127.832031"/>
      <use xlink:href="#ArialMT-6e" x="183.447266"/>
      <use xlink:href="#ArialMT-74" x="239.0625"/>
     </g>
    </g>
   </g>
   <g id="patch_3">
    <path d="M 292.481119 378 
L 308.08951 378 
L 308.08951 378 
L 292.481119 378 
z
" clip-path="url(#p808cf59957)" style="fill: #36ada4; fill-opacity: 0.5; stroke: #ffffff; stroke-linejoin: miter"/>
   </g>
   <g id="patch_4">
    <path d="M 323.697902 378 
L 339.306294 378 
L 339.306294 378 
L 323.697902 378 
z
" clip-path="url(#p808cf59957)" style="fill: #36ada4; fill-opacity: 0.5; stroke: #ffffff; stroke-linejoin: miter"/>
   </g>
   <g id="patch_5">
    <path d="M 354.914685 378 
L 370.523077 378 
L 370.523077 378 
L 354.914685 378 
z
" clip-path="url(#p808cf59957)" style="fill: #36ada4; fill-opacity: 0.5; stroke: #ffffff; stroke-linejoin: miter"/>
   </g>
   <g id="patch_6">
    <path d="M 386.131469 378 
L 401.73986 378 
L 401.73986 372.822857 
L 386.131469 372.822857 
z
" clip-path="url(#p808cf59957)" style="fill: #36ada4; fill-opacity: 0.5; stroke: #ffffff; stroke-linejoin: miter"/>
   </g>
   <g id="patch_7">
    <path d="M 417.348252 378 
L 432.956643 378 
L 432.956643 372.822857 
L 417.348252 372.822857 
z
" clip-path="url(#p808cf59957)" style="fill: #36ada4; fill-opacity: 0.5; stroke: #ffffff; stroke-linejoin: miter"/>
   </g>
   <g id="patch_8">
    <path d="M 448.565035 378 
L 464.173427 378 
L 464.173427 372.822857 
L 448.565035 372.822857 
z
" clip-path="url(#p808cf59957)" style="fill: #36ada4; fill-opacity: 0.5; stroke: #ffffff; stroke-linejoin: miter"/>
   </g>
   <g id="patch_9">
    <path d="M 479.781818 378 
L 495.39021 378 
L 495.39021 362.468571 
L 479.781818 362.468571 
z
" clip-path="url(#p808cf59957)" style="fill: #36ada4; fill-opacity: 0.5; stroke: #ffffff; stroke-linejoin: miter"/>
   </g>
   <g id="patch_10">
    <path d="M 510.998601 378 
L 526.606993 378 
L 526.606993 365.057143 
L 510.998601 365.057143 
z
" clip-path="url(#p808cf59957)" style="fill: #36ada4; fill-opacity: 0.5; stroke: #ffffff; stroke-linejoin: miter"/>
   </g>
   <g id="patch_11">
    <path d="M 542.215385 378 
L 557.823776 378 
L 557.823776 352.114286 
L 542.215385 352.114286 
z
" clip-path="url(#p808cf59957)" style="fill: #36ada4; fill-opacity: 0.5; stroke: #ffffff; stroke-linejoin: miter"/>
   </g>
   <g id="patch_12">
    <path d="M 573.432168 378 
L 589.040559 378 
L 589.040559 352.114286 
L 573.432168 352.114286 
z
" clip-path="url(#p808cf59957)" style="fill: #36ada4; fill-opacity: 0.5; stroke: #ffffff; stroke-linejoin: miter"/>
   </g>
   <g id="patch_13">
    <path d="M 604.648951 378 
L 620.257343 378 
L 620.257343 341.76 
L 604.648951 341.76 
z
" clip-path="url(#p808cf59957)" style="fill: #36ada4; fill-opacity: 0.5; stroke: #ffffff; stroke-linejoin: miter"/>
   </g>
   <g id="patch_14">
    <path d="M 635.865734 378 
L 651.474126 378 
L 651.474126 359.88 
L 635.865734 359.88 
z
" clip-path="url(#p808cf59957)" style="fill: #36ada4; fill-opacity: 0.5; stroke: #ffffff; stroke-linejoin: miter"/>
   </g>
   <g id="patch_15">
    <path d="M 667.082517 378 
L 682.690909 378 
L 682.690909 352.114286 
L 667.082517 352.114286 
z
" clip-path="url(#p808cf59957)" style="fill: #36ada4; fill-opacity: 0.5; stroke: #ffffff; stroke-linejoin: miter"/>
   </g>
   <g id="patch_16">
    <path d="M 698.299301 378 
L 713.907692 378 
L 713.907692 354.702857 
L 698.299301 354.702857 
z
" clip-path="url(#p808cf59957)" style="fill: #36ada4; fill-opacity: 0.5; stroke: #ffffff; stroke-linejoin: miter"/>
   </g>
   <g id="patch_17">
    <path d="M 729.516084 378 
L 745.124476 378 
L 745.124476 354.702857 
L 729.516084 354.702857 
z
" clip-path="url(#p808cf59957)" style="fill: #36ada4; fill-opacity: 0.5; stroke: #ffffff; stroke-linejoin: miter"/>
   </g>
   <g id="patch_18">
    <path d="M 760.732867 378 
L 776.341259 378 
L 776.341259 341.76 
L 760.732867 341.76 
z
" clip-path="url(#p808cf59957)" style="fill: #36ada4; fill-opacity: 0.5; stroke: #ffffff; stroke-linejoin: miter"/>
   </g>
   <g id="patch_19">
    <path d="M 791.94965 378 
L 807.558042 378 
L 807.558042 346.937143 
L 791.94965 346.937143 
z
" clip-path="url(#p808cf59957)" style="fill: #36ada4; fill-opacity: 0.5; stroke: #ffffff; stroke-linejoin: miter"/>
   </g>
   <g id="patch_20">
    <path d="M 823.166434 378 
L 838.774825 378 
L 838.774825 336.582857 
L 823.166434 336.582857 
z
" clip-path="url(#p808cf59957)" style="fill: #36ada4; fill-opacity: 0.5; stroke: #ffffff; stroke-linejoin: miter"/>
   </g>
   <g id="patch_21">
    <path d="M 854.383217 378 
L 869.991608 378 
L 869.991608 344.348571 
L 854.383217 344.348571 
z
" clip-path="url(#p808cf59957)" style="fill: #36ada4; fill-opacity: 0.5; stroke: #ffffff; stroke-linejoin: miter"/>
   </g>
   <g id="patch_22">
    <path d="M 885.6 378 
L 901.208392 378 
L 901.208392 326.228571 
L 885.6 326.228571 
z
" clip-path="url(#p808cf59957)" style="fill: #36ada4; fill-opacity: 0.5; stroke: #ffffff; stroke-linejoin: miter"/>
   </g>
   <g id="patch_23">
    <path d="M 916.816783 378 
L 932.425175 378 
L 932.425175 328.817143 
L 916.816783 328.817143 
z
" clip-path="url(#p808cf59957)" style="fill: #36ada4; fill-opacity: 0.5; stroke: #ffffff; stroke-linejoin: miter"/>
   </g>
   <g id="patch_24">
    <path d="M 948.033566 378 
L 963.641958 378 
L 963.641958 331.405714 
L 948.033566 331.405714 
z
" clip-path="url(#p808cf59957)" style="fill: #36ada4; fill-opacity: 0.5; stroke: #ffffff; stroke-linejoin: miter"/>
   </g>
   <g id="patch_25">
    <path d="M 979.25035 378 
L 994.858741 378 
L 994.858741 341.76 
L 979.25035 341.76 
z
" clip-path="url(#p808cf59957)" style="fill: #36ada4; fill-opacity: 0.5; stroke: #ffffff; stroke-linejoin: miter"/>
   </g>
   <g id="patch_26">
    <path d="M 1010.467133 378 
L 1026.075524 378 
L 1026.075524 341.76 
L 1010.467133 341.76 
z
" clip-path="url(#p808cf59957)" style="fill: #36ada4; fill-opacity: 0.5; stroke: #ffffff; stroke-linejoin: miter"/>
   </g>
   <g id="patch_27">
    <path d="M 1041.683916 378 
L 1057.292308 378 
L 1057.292308 328.817143 
L 1041.683916 328.817143 
z
" clip-path="url(#p808cf59957)" style="fill: #36ada4; fill-opacity: 0.5; stroke: #ffffff; stroke-linejoin: miter"/>
   </g>
   <g id="patch_28">
    <path d="M 1072.900699 378 
L 1088.509091 378 
L 1088.509091 326.228571 
L 1072.900699 326.228571 
z
" clip-path="url(#p808cf59957)" style="fill: #36ada4; fill-opacity: 0.5; stroke: #ffffff; stroke-linejoin: miter"/>
   </g>
   <g id="patch_29">
    <path d="M 1104.117483 378 
L 1119.725874 378 
L 1119.725874 326.228571 
L 1104.117483 326.228571 
z
" clip-path="url(#p808cf59957)" style="fill: #36ada4; fill-opacity: 0.5; stroke: #ffffff; stroke-linejoin: miter"/>
   </g>
   <g id="patch_30">
    <path d="M 1135.334266 378 
L 1150.942657 378 
L 1150.942657 331.405714 
L 1135.334266 331.405714 
z
" clip-path="url(#p808cf59957)" style="fill: #36ada4; fill-opacity: 0.5; stroke: #ffffff; stroke-linejoin: miter"/>
   </g>
   <g id="patch_31">
    <path d="M 1166.551049 378 
L 1182.159441 378 
L 1182.159441 318.462857 
L 1166.551049 318.462857 
z
" clip-path="url(#p808cf59957)" style="fill: #36ada4; fill-opacity: 0.5; stroke: #ffffff; stroke-linejoin: miter"/>
   </g>
   <g id="patch_32">
    <path d="M 1197.767832 378 
L 1213.376224 378 
L 1213.376224 333.994286 
L 1197.767832 333.994286 
z
" clip-path="url(#p808cf59957)" style="fill: #36ada4; fill-opacity: 0.5; stroke: #ffffff; stroke-linejoin: miter"/>
   </g>
   <g id="patch_33">
    <path d="M 1228.984615 378 
L 1244.593007 378 
L 1244.593007 326.228571 
L 1228.984615 326.228571 
z
" clip-path="url(#p808cf59957)" style="fill: #36ada4; fill-opacity: 0.5; stroke: #ffffff; stroke-linejoin: miter"/>
   </g>
   <g id="patch_34">
    <path d="M 1260.201399 378 
L 1275.80979 378 
L 1275.80979 313.285714 
L 1260.201399 313.285714 
z
" clip-path="url(#p808cf59957)" style="fill: #36ada4; fill-opacity: 0.5; stroke: #ffffff; stroke-linejoin: miter"/>
   </g>
   <g id="patch_35">
    <path d="M 1291.418182 378 
L 1307.026573 378 
L 1307.026573 344.348571 
L 1291.418182 344.348571 
z
" clip-path="url(#p808cf59957)" style="fill: #36ada4; fill-opacity: 0.5; stroke: #ffffff; stroke-linejoin: miter"/>
   </g>
   <g id="patch_36">
    <path d="M 1322.634965 378 
L 1338.243357 378 
L 1338.243357 346.937143 
L 1322.634965 346.937143 
z
" clip-path="url(#p808cf59957)" style="fill: #36ada4; fill-opacity: 0.5; stroke: #ffffff; stroke-linejoin: miter"/>
   </g>
   <g id="patch_37">
    <path d="M 1353.851748 378 
L 1369.46014 378 
L 1369.46014 346.937143 
L 1353.851748 346.937143 
z
" clip-path="url(#p808cf59957)" style="fill: #36ada4; fill-opacity: 0.5; stroke: #ffffff; stroke-linejoin: miter"/>
   </g>
   <g id="patch_38">
    <path d="M 1385.068531 378 
L 1400.676923 378 
L 1400.676923 349.525714 
L 1385.068531 349.525714 
z
" clip-path="url(#p808cf59957)" style="fill: #36ada4; fill-opacity: 0.5; stroke: #ffffff; stroke-linejoin: miter"/>
   </g>
   <g id="patch_39">
    <path d="M 1416.285315 378 
L 1431.893706 378 
L 1431.893706 359.88 
L 1416.285315 359.88 
z
" clip-path="url(#p808cf59957)" style="fill: #36ada4; fill-opacity: 0.5; stroke: #ffffff; stroke-linejoin: miter"/>
   </g>
   <g id="patch_40">
    <path d="M 1447.502098 378 
L 1463.11049 378 
L 1463.11049 375.411429 
L 1447.502098 375.411429 
z
" clip-path="url(#p808cf59957)" style="fill: #36ada4; fill-opacity: 0.5; stroke: #ffffff; stroke-linejoin: miter"/>
   </g>
   <g id="patch_41">
    <path d="M 1478.718881 378 
L 1494.327273 378 
L 1494.327273 378 
L 1478.718881 378 
z
" clip-path="url(#p808cf59957)" style="fill: #36ada4; fill-opacity: 0.5; stroke: #ffffff; stroke-linejoin: miter"/>
   </g>
   <g id="patch_42">
    <path d="M 276.872727 378 
L 292.481119 378 
L 292.481119 375.411429 
L 276.872727 375.411429 
z
" clip-path="url(#p808cf59957)" style="fill: #f77189; fill-opacity: 0.5; stroke: #ffffff; stroke-linejoin: miter"/>
   </g>
   <g id="patch_43">
    <path d="M 308.08951 378 
L 323.697902 378 
L 323.697902 367.645714 
L 308.08951 367.645714 
z
" clip-path="url(#p808cf59957)" style="fill: #f77189; fill-opacity: 0.5; stroke: #ffffff; stroke-linejoin: miter"/>
   </g>
   <g id="patch_44">
    <path d="M 339.306294 378 
L 354.914685 378 
L 354.914685 344.348571 
L 339.306294 344.348571 
z
" clip-path="url(#p808cf59957)" style="fill: #f77189; fill-opacity: 0.5; stroke: #ffffff; stroke-linejoin: miter"/>
   </g>
   <g id="patch_45">
    <path d="M 370.523077 378 
L 386.131469 378 
L 386.131469 321.051429 
L 370.523077 321.051429 
z
" clip-path="url(#p808cf59957)" style="fill: #f77189; fill-opacity: 0.5; stroke: #ffffff; stroke-linejoin: miter"/>
   </g>
   <g id="patch_46">
    <path d="M 401.73986 378 
L 417.348252 378 
L 417.348252 207.154286 
L 401.73986 207.154286 
z
" clip-path="url(#p808cf59957)" style="fill: #f77189; fill-opacity: 0.5; stroke: #ffffff; stroke-linejoin: miter"/>
   </g>
   <g id="patch_47">
    <path d="M 432.956643 378 
L 448.565035 378 
L 448.565035 214.92 
L 432.956643 214.92 
z
" clip-path="url(#p808cf59957)" style="fill: #f77189; fill-opacity: 0.5; stroke: #ffffff; stroke-linejoin: miter"/>
   </g>
   <g id="patch_48">
    <path d="M 464.173427 378 
L 479.781818 378 
L 479.781818 126.908571 
L 464.173427 126.908571 
z
" clip-path="url(#p808cf59957)" style="fill: #f77189; fill-opacity: 0.5; stroke: #ffffff; stroke-linejoin: miter"/>
   </g>
   <g id="patch_49">
    <path d="M 495.39021 378 
L 510.998601 378 
L 510.998601 80.314286 
L 495.39021 80.314286 
z
" clip-path="url(#p808cf59957)" style="fill: #f77189; fill-opacity: 0.5; stroke: #ffffff; stroke-linejoin: miter"/>
   </g>
   <g id="patch_50">
    <path d="M 526.606993 378 
L 542.215385 378 
L 542.215385 67.371429 
L 526.606993 67.371429 
z
" clip-path="url(#p808cf59957)" style="fill: #f77189; fill-opacity: 0.5; stroke: #ffffff; stroke-linejoin: miter"/>
   </g>
   <g id="patch_51">
    <path d="M 557.823776 378 
L 573.432168 378 
L 573.432168 88.08 
L 557.823776 88.08 
z
" clip-path="url(#p808cf59957)" style="fill: #f77189; fill-opacity: 0.5; stroke: #ffffff; stroke-linejoin: miter"/>
   </g>
   <g id="patch_52">
    <path d="M 589.040559 378 
L 604.648951 378 
L 604.648951 80.314286 
L 589.040559 80.314286 
z
" clip-path="url(#p808cf59957)" style="fill: #f77189; fill-opacity: 0.5; stroke: #ffffff; stroke-linejoin: miter"/>
   </g>
   <g id="patch_53">
    <path d="M 620.257343 378 
L 635.865734 378 
L 635.865734 121.731429 
L 620.257343 121.731429 
z
" clip-path="url(#p808cf59957)" style="fill: #f77189; fill-opacity: 0.5; stroke: #ffffff; stroke-linejoin: miter"/>
   </g>
   <g id="patch_54">
    <path d="M 651.474126 378 
L 667.082517 378 
L 667.082517 106.2 
L 651.474126 106.2 
z
" clip-path="url(#p808cf59957)" style="fill: #f77189; fill-opacity: 0.5; stroke: #ffffff; stroke-linejoin: miter"/>
   </g>
   <g id="patch_55">
    <path d="M 682.690909 378 
L 698.299301 378 
L 698.299301 106.2 
L 682.690909 106.2 
z
" clip-path="url(#p808cf59957)" style="fill: #f77189; fill-opacity: 0.5; stroke: #ffffff; stroke-linejoin: miter"/>
   </g>
   <g id="patch_56">
    <path d="M 713.907692 378 
L 729.516084 378 
L 729.516084 69.96 
L 713.907692 69.96 
z
" clip-path="url(#p808cf59957)" style="fill: #f77189; fill-opacity: 0.5; stroke: #ffffff; stroke-linejoin: miter"/>
   </g>
   <g id="patch_57">
    <path d="M 745.124476 378 
L 760.732867 378 
L 760.732867 191.622857 
L 745.124476 191.622857 
z
" clip-path="url(#p808cf59957)" style="fill: #f77189; fill-opacity: 0.5; stroke: #ffffff; stroke-linejoin: miter"/>
   </g>
   <g id="patch_58">
    <path d="M 776.341259 378 
L 791.94965 378 
L 791.94965 113.965714 
L 776.341259 113.965714 
z
" clip-path="url(#p808cf59957)" style="fill: #f77189; fill-opacity: 0.5; stroke: #ffffff; stroke-linejoin: miter"/>
   </g>
   <g id="patch_59">
    <path d="M 807.558042 378 
L 823.166434 378 
L 823.166434 183.857143 
L 807.558042 183.857143 
z
" clip-path="url(#p808cf59957)" style="fill: #f77189; fill-opacity: 0.5; stroke: #ffffff; stroke-linejoin: miter"/>
   </g>
   <g id="patch_60">
    <path d="M 838.774825 378 
L 854.383217 378 
L 854.383217 152.794286 
L 838.774825 152.794286 
z
" clip-path="url(#p808cf59957)" style="fill: #f77189; fill-opacity: 0.5; stroke: #ffffff; stroke-linejoin: miter"/>
   </g>
   <g id="patch_61">
    <path d="M 869.991608 378 
L 885.6 378 
L 885.6 178.68 
L 869.991608 178.68 
z
" clip-path="url(#p808cf59957)" style="fill: #f77189; fill-opacity: 0.5; stroke: #ffffff; stroke-linejoin: miter"/>
   </g>
   <g id="patch_62">
    <path d="M 901.208392 378 
L 916.816783 378 
L 916.816783 165.737143 
L 901.208392 165.737143 
z
" clip-path="url(#p808cf59957)" style="fill: #f77189; fill-opacity: 0.5; stroke: #ffffff; stroke-linejoin: miter"/>
   </g>
   <g id="patch_63">
    <path d="M 932.425175 378 
L 948.033566 378 
L 948.033566 170.914286 
L 932.425175 170.914286 
z
" clip-path="url(#p808cf59957)" style="fill: #f77189; fill-opacity: 0.5; stroke: #ffffff; stroke-linejoin: miter"/>
   </g>
   <g id="patch_64">
    <path d="M 963.641958 378 
L 979.25035 378 
L 979.25035 163.148571 
L 963.641958 163.148571 
z
" clip-path="url(#p808cf59957)" style="fill: #f77189; fill-opacity: 0.5; stroke: #ffffff; stroke-linejoin: miter"/>
   </g>
   <g id="patch_65">
    <path d="M 994.858741 378 
L 1010.467133 378 
L 1010.467133 157.971429 
L 994.858741 157.971429 
z
" clip-path="url(#p808cf59957)" style="fill: #f77189; fill-opacity: 0.5; stroke: #ffffff; stroke-linejoin: miter"/>
   </g>
   <g id="patch_66">
    <path d="M 1026.075524 378 
L 1041.683916 378 
L 1041.683916 217.508571 
L 1026.075524 217.508571 
z
" clip-path="url(#p808cf59957)" style="fill: #f77189; fill-opacity: 0.5; stroke: #ffffff; stroke-linejoin: miter"/>
   </g>
   <g id="patch_67">
    <path d="M 1057.292308 378 
L 1072.900699 378 
L 1072.900699 212.331429 
L 1057.292308 212.331429 
z
" clip-path="url(#p808cf59957)" style="fill: #f77189; fill-opacity: 0.5; stroke: #ffffff; stroke-linejoin: miter"/>
   </g>
   <g id="patch_68">
    <path d="M 1088.509091 378 
L 1104.117483 378 
L 1104.117483 227.862857 
L 1088.509091 227.862857 
z
" clip-path="url(#p808cf59957)" style="fill: #f77189; fill-opacity: 0.5; stroke: #ffffff; stroke-linejoin: miter"/>
   </g>
   <g id="patch_69">
    <path d="M 1119.725874 378 
L 1135.334266 378 
L 1135.334266 227.862857 
L 1119.725874 227.862857 
z
" clip-path="url(#p808cf59957)" style="fill: #f77189; fill-opacity: 0.5; stroke: #ffffff; stroke-linejoin: miter"/>
   </g>
   <g id="patch_70">
    <path d="M 1150.942657 378 
L 1166.551049 378 
L 1166.551049 220.097143 
L 1150.942657 220.097143 
z
" clip-path="url(#p808cf59957)" style="fill: #f77189; fill-opacity: 0.5; stroke: #ffffff; stroke-linejoin: miter"/>
   </g>
   <g id="patch_71">
    <path d="M 1182.159441 378 
L 1197.767832 378 
L 1197.767832 233.04 
L 1182.159441 233.04 
z
" clip-path="url(#p808cf59957)" style="fill: #f77189; fill-opacity: 0.5; stroke: #ffffff; stroke-linejoin: miter"/>
   </g>
   <g id="patch_72">
    <path d="M 1213.376224 378 
L 1228.984615 378 
L 1228.984615 240.805714 
L 1213.376224 240.805714 
z
" clip-path="url(#p808cf59957)" style="fill: #f77189; fill-opacity: 0.5; stroke: #ffffff; stroke-linejoin: miter"/>
   </g>
   <g id="patch_73">
    <path d="M 1244.593007 378 
L 1260.201399 378 
L 1260.201399 230.451429 
L 1244.593007 230.451429 
z
" clip-path="url(#p808cf59957)" style="fill: #f77189; fill-opacity: 0.5; stroke: #ffffff; stroke-linejoin: miter"/>
   </g>
   <g id="patch_74">
    <path d="M 1275.80979 378 
L 1291.418182 378 
L 1291.418182 248.571429 
L 1275.80979 248.571429 
z
" clip-path="url(#p808cf59957)" style="fill: #f77189; fill-opacity: 0.5; stroke: #ffffff; stroke-linejoin: miter"/>
   </g>
   <g id="patch_75">
    <path d="M 1307.026573 378 
L 1322.634965 378 
L 1322.634965 315.874286 
L 1307.026573 315.874286 
z
" clip-path="url(#p808cf59957)" style="fill: #f77189; fill-opacity: 0.5; stroke: #ffffff; stroke-linejoin: miter"/>
   </g>
   <g id="patch_76">
    <path d="M 1338.243357 378 
L 1353.851748 378 
L 1353.851748 339.171429 
L 1338.243357 339.171429 
z
" clip-path="url(#p808cf59957)" style="fill: #f77189; fill-opacity: 0.5; stroke: #ffffff; stroke-linejoin: miter"/>
   </g>
   <g id="patch_77">
    <path d="M 1369.46014 378 
L 1385.068531 378 
L 1385.068531 336.582857 
L 1369.46014 336.582857 
z
" clip-path="url(#p808cf59957)" style="fill: #f77189; fill-opacity: 0.5; stroke: #ffffff; stroke-linejoin: miter"/>
   </g>
   <g id="patch_78">
    <path d="M 1400.676923 378 
L 1416.285315 378 
L 1416.285315 362.468571 
L 1400.676923 362.468571 
z
" clip-path="url(#p808cf59957)" style="fill: #f77189; fill-opacity: 0.5; stroke: #ffffff; stroke-linejoin: miter"/>
   </g>
   <g id="patch_79">
    <path d="M 1431.893706 378 
L 1447.502098 378 
L 1447.502098 370.234286 
L 1431.893706 370.234286 
z
" clip-path="url(#p808cf59957)" style="fill: #f77189; fill-opacity: 0.5; stroke: #ffffff; stroke-linejoin: miter"/>
   </g>
   <g id="patch_80">
    <path d="M 1463.11049 378 
L 1478.718881 378 
L 1478.718881 375.411429 
L 1463.11049 375.411429 
z
" clip-path="url(#p808cf59957)" style="fill: #f77189; fill-opacity: 0.5; stroke: #ffffff; stroke-linejoin: miter"/>
   </g>
   <g id="line2d_17">
    <path d="M 292.481119 377.123864 
L 316.325094 376.535693 
L 340.169069 375.697947 
L 358.05205 374.880844 
L 375.935032 373.886147 
L 393.818013 372.703521 
L 411.700994 371.327719 
L 429.583976 369.76131 
L 453.427951 367.40312 
L 483.23292 364.142919 
L 524.959876 359.530464 
L 542.842858 357.763604 
L 560.725839 356.230406 
L 578.60882 354.973387 
L 596.491802 353.99697 
L 614.374783 353.264221 
L 638.218758 352.536519 
L 679.945715 351.298485 
L 697.828696 350.55401 
L 715.711677 349.60524 
L 733.594659 348.44239 
L 751.47764 347.084273 
L 775.321615 345.041126 
L 846.85354 338.672368 
L 864.736522 337.372826 
L 882.619503 336.302758 
L 900.502484 335.483341 
L 918.385466 334.900422 
L 942.229441 334.397218 
L 989.917391 333.558617 
L 1013.761366 332.862103 
L 1037.605341 331.909622 
L 1109.137267 328.736819 
L 1127.020248 328.212264 
L 1144.903229 327.895615 
L 1162.786211 327.825442 
L 1180.669192 328.042545 
L 1192.59118 328.36892 
L 1204.513167 328.856406 
L 1216.435155 329.517386 
L 1228.357142 330.361653 
L 1240.27913 331.395002 
L 1252.201117 332.618141 
L 1264.123105 334.026174 
L 1276.045093 335.608772 
L 1293.928074 338.276428 
L 1311.811055 341.240151 
L 1329.694037 344.432433 
L 1353.538012 348.93342 
L 1425.069937 362.692005 
L 1442.952918 365.787775 
L 1454.874906 367.683695 
L 1466.796894 369.419488 
L 1478.718881 370.97891 
L 1478.718881 370.97891 
" clip-path="url(#p808cf59957)" style="fill: none; stroke: #36ada4; stroke-width: 1.5; stroke-linecap: round"/>
   </g>
   <g id="line2d_18">
    <path d="M 292.481119 364.637601 
L 298.442113 362.32106 
L 304.403106 359.697684 
L 310.3641 356.744032 
L 316.325094 353.437929 
L 322.286088 349.759126 
L 328.247082 345.689993 
L 334.208075 341.216217 
L 340.169069 336.327459 
L 346.130063 331.017957 
L 352.091057 325.287005 
L 358.05205 319.139297 
L 364.013044 312.585094 
L 369.974038 305.640202 
L 375.935032 298.325758 
L 381.896026 290.667842 
L 387.857019 282.696928 
L 393.818013 274.447237 
L 399.779007 265.956031 
L 411.700994 248.409103 
L 429.583976 221.310477 
L 441.505963 203.231068 
L 453.427951 185.548916 
L 459.388945 176.966593 
L 465.349939 168.61524 
L 471.310932 160.538257 
L 477.271926 152.778163 
L 483.23292 145.375988 
L 489.193914 138.370513 
L 495.154907 131.797412 
L 501.115901 125.688346 
L 507.076895 120.07007 
L 513.037889 114.96361 
L 518.998883 110.38358 
L 524.959876 106.337681 
L 530.92087 102.82641 
L 536.881864 99.843011 
L 542.842858 97.37365 
L 548.803851 95.397818 
L 554.764845 93.888924 
L 560.725839 92.81505 
L 566.686833 92.139828 
L 572.647827 91.823414 
L 578.60882 91.823518 
L 584.569814 92.096464 
L 590.530808 92.598261 
L 596.491802 93.285678 
L 608.413789 95.054451 
L 626.296771 98.174562 
L 650.140746 102.30489 
L 673.984721 106.30886 
L 685.906708 108.564587 
L 691.867702 109.830691 
L 697.828696 111.214497 
L 703.78969 112.730612 
L 709.750683 114.388698 
L 715.711677 116.192757 
L 721.672671 118.140791 
L 727.633665 120.224854 
L 739.555652 124.742459 
L 751.47764 129.587095 
L 775.321615 139.461044 
L 787.243603 144.119094 
L 799.16559 148.410977 
L 811.087578 152.263676 
L 817.048572 154.01436 
L 823.009565 155.646215 
L 828.970559 157.159799 
L 834.931553 158.556701 
L 846.85354 161.010425 
L 858.775528 163.032475 
L 870.697516 164.655732 
L 882.619503 165.92329 
L 894.541491 166.893537 
L 906.463478 167.645914 
L 936.268447 169.325491 
L 948.190435 170.300407 
L 954.151428 170.933287 
L 960.112422 171.68873 
L 966.073416 172.583713 
L 972.03441 173.632512 
L 977.995404 174.845983 
L 983.956397 176.230922 
L 989.917391 177.789561 
L 995.878385 179.519243 
L 1001.839379 181.412298 
L 1007.800372 183.456147 
L 1019.72236 187.923624 
L 1031.644348 192.740957 
L 1055.488323 202.548812 
L 1067.41031 207.118935 
L 1073.371304 209.247358 
L 1079.332298 211.253121 
L 1085.293292 213.127728 
L 1091.254285 214.866827 
L 1097.215279 216.470016 
L 1103.176273 217.940535 
L 1109.137267 219.284846 
L 1121.059254 221.633905 
L 1132.981242 223.614462 
L 1144.903229 225.343325 
L 1180.669192 230.239662 
L 1192.59118 232.171586 
L 1204.513167 234.457838 
L 1210.474161 235.776506 
L 1216.435155 237.236601 
L 1222.396149 238.85711 
L 1228.357142 240.657071 
L 1234.318136 242.654935 
L 1240.27913 244.8678 
L 1246.240124 247.310524 
L 1252.201117 249.994791 
L 1258.162111 252.928201 
L 1264.123105 256.113445 
L 1270.084099 259.547651 
L 1276.045093 263.221961 
L 1282.006086 267.121386 
L 1287.96708 271.224973 
L 1293.928074 275.506295 
L 1305.850061 284.474032 
L 1335.65503 307.541546 
L 1347.577018 316.295218 
L 1353.538012 320.462575 
L 1359.499006 324.46807 
L 1365.459999 328.301086 
L 1371.420993 331.955409 
L 1377.381987 335.42865 
L 1383.342981 338.721557 
L 1389.303974 341.837262 
L 1395.264968 344.780557 
L 1401.225962 347.557209 
L 1407.186956 350.173398 
L 1413.14795 352.635263 
L 1419.108943 354.948595 
L 1425.069937 357.118666 
L 1431.030931 359.150167 
L 1436.991925 361.047257 
L 1442.952918 362.813675 
L 1448.913912 364.452893 
L 1454.874906 365.968294 
L 1460.8359 367.363334 
L 1472.757887 369.807369 
L 1478.718881 370.864768 
L 1478.718881 370.864768 
" clip-path="url(#p808cf59957)" style="fill: none; stroke: #f77189; stroke-width: 1.5; stroke-linecap: round"/>
   </g>
   <g id="patch_81">
    <path d="M 216 378 
L 216 51.84 
" style="fill: none; stroke: #ffffff; stroke-width: 1.25; stroke-linejoin: miter; stroke-linecap: square"/>
   </g>
   <g id="patch_82">
    <path d="M 216 378 
L 1555.2 378 
" style="fill: none; stroke: #ffffff; stroke-width: 1.25; stroke-linejoin: miter; stroke-linecap: square"/>
   </g>
   <g id="legend_1">
    <g id="patch_83">
     <path d="M 1454.830625 108.509219 
L 1547.5 108.509219 
Q 1549.7 108.509219 1549.7 106.309219 
L 1549.7 59.54 
Q 1549.7 57.34 1547.5 57.34 
L 1454.830625 57.34 
Q 1452.630625 57.34 1452.630625 59.54 
L 1452.630625 106.309219 
Q 1452.630625 108.509219 1454.830625 108.509219 
z
" style="fill: #eaeaf2; opacity: 0.8; stroke: #cccccc; stroke-linejoin: miter"/>
    </g>
    <g id="text_19">
     <!-- TenYearCHD_lbl -->
     <g style="fill: #262626" transform="translate(1457.030625 70.475625)scale(0.12 -0.12)">
      <defs>
       <path id="ArialMT-54" d="M 1659 0 
L 1659 4041 
L 150 4041 
L 150 4581 
L 3781 4581 
L 3781 4041 
L 2266 4041 
L 2266 0 
L 1659 0 
z
" transform="scale(0.015625)"/>
       <path id="ArialMT-59" d="M 1784 0 
L 1784 1941 
L 19 4581 
L 756 4581 
L 1659 3200 
Q 1909 2813 2125 2425 
Q 2331 2784 2625 3234 
L 3513 4581 
L 4219 4581 
L 2391 1941 
L 2391 0 
L 1784 0 
z
" transform="scale(0.015625)"/>
       <path id="ArialMT-72" d="M 416 0 
L 416 3319 
L 922 3319 
L 922 2816 
Q 1116 3169 1280 3281 
Q 1444 3394 1641 3394 
Q 1925 3394 2219 3213 
L 2025 2691 
Q 1819 2813 1613 2813 
Q 1428 2813 1281 2702 
Q 1134 2591 1072 2394 
Q 978 2094 978 1738 
L 978 0 
L 416 0 
z
" transform="scale(0.015625)"/>
       <path id="ArialMT-48" d="M 513 0 
L 513 4581 
L 1119 4581 
L 1119 2700 
L 3500 2700 
L 3500 4581 
L 4106 4581 
L 4106 0 
L 3500 0 
L 3500 2159 
L 1119 2159 
L 1119 0 
L 513 0 
z
" transform="scale(0.015625)"/>
       <path id="ArialMT-44" d="M 494 0 
L 494 4581 
L 2072 4581 
Q 2606 4581 2888 4516 
Q 3281 4425 3559 4188 
Q 3922 3881 4101 3404 
Q 4281 2928 4281 2316 
Q 4281 1794 4159 1391 
Q 4038 988 3847 723 
Q 3656 459 3429 307 
Q 3203 156 2883 78 
Q 2563 0 2147 0 
L 494 0 
z
M 1100 541 
L 2078 541 
Q 2531 541 2789 625 
Q 3047 709 3200 863 
Q 3416 1078 3536 1442 
Q 3656 1806 3656 2325 
Q 3656 3044 3420 3430 
Q 3184 3816 2847 3947 
Q 2603 4041 2063 4041 
L 1100 4041 
L 1100 541 
z
" transform="scale(0.015625)"/>
       <path id="ArialMT-5f" d="M -97 -1272 
L -97 -866 
L 3631 -866 
L 3631 -1272 
L -97 -1272 
z
" transform="scale(0.015625)"/>
       <path id="ArialMT-6c" d="M 409 0 
L 409 4581 
L 972 4581 
L 972 0 
L 409 0 
z
" transform="scale(0.015625)"/>
       <path id="ArialMT-62" d="M 941 0 
L 419 0 
L 419 4581 
L 981 4581 
L 981 2947 
Q 1338 3394 1891 3394 
Q 2197 3394 2470 3270 
Q 2744 3147 2920 2923 
Q 3097 2700 3197 2384 
Q 3297 2069 3297 1709 
Q 3297 856 2875 390 
Q 2453 -75 1863 -75 
Q 1275 -75 941 416 
L 941 0 
z
M 934 1684 
Q 934 1088 1097 822 
Q 1363 388 1816 388 
Q 2184 388 2453 708 
Q 2722 1028 2722 1663 
Q 2722 2313 2464 2622 
Q 2206 2931 1841 2931 
Q 1472 2931 1203 2611 
Q 934 2291 934 1684 
z
" transform="scale(0.015625)"/>
      </defs>
      <use xlink:href="#ArialMT-54"/>
      <use xlink:href="#ArialMT-65" x="49.958984"/>
      <use xlink:href="#ArialMT-6e" x="105.574219"/>
      <use xlink:href="#ArialMT-59" x="161.189453"/>
      <use xlink:href="#ArialMT-65" x="218.763672"/>
      <use xlink:href="#ArialMT-61" x="274.378906"/>
      <use xlink:href="#ArialMT-72" x="329.994141"/>
      <use xlink:href="#ArialMT-43" x="363.294922"/>
      <use xlink:href="#ArialMT-48" x="435.511719"/>
      <use xlink:href="#ArialMT-44" x="507.728516"/>
      <use xlink:href="#ArialMT-5f" x="579.945312"/>
      <use xlink:href="#ArialMT-6c" x="635.560547"/>
      <use xlink:href="#ArialMT-62" x="657.777344"/>
      <use xlink:href="#ArialMT-6c" x="713.392578"/>
     </g>
    </g>
    <g id="patch_84">
     <path d="M 1464.059219 86.234219 
L 1486.059219 86.234219 
L 1486.059219 78.534219 
L 1464.059219 78.534219 
z
" style="fill: #f77189; fill-opacity: 0.5; stroke: #ffffff; stroke-linejoin: miter"/>
    </g>
    <g id="text_20">
     <!-- Negative -->
     <g style="fill: #262626" transform="translate(1494.859219 86.234219)scale(0.11 -0.11)">
      <defs>
       <path id="ArialMT-4e" d="M 488 0 
L 488 4581 
L 1109 4581 
L 3516 984 
L 3516 4581 
L 4097 4581 
L 4097 0 
L 3475 0 
L 1069 3600 
L 1069 0 
L 488 0 
z
" transform="scale(0.015625)"/>
       <path id="ArialMT-69" d="M 425 3934 
L 425 4581 
L 988 4581 
L 988 3934 
L 425 3934 
z
M 425 0 
L 425 3319 
L 988 3319 
L 988 0 
L 425 0 
z
" transform="scale(0.015625)"/>
       <path id="ArialMT-76" d="M 1344 0 
L 81 3319 
L 675 3319 
L 1388 1331 
Q 1503 1009 1600 663 
Q 1675 925 1809 1294 
L 2547 3319 
L 3125 3319 
L 1869 0 
L 1344 0 
z
" transform="scale(0.015625)"/>
      </defs>
      <use xlink:href="#ArialMT-4e"/>
      <use xlink:href="#ArialMT-65" x="72.216797"/>
      <use xlink:href="#ArialMT-67" x="127.832031"/>
      <use xlink:href="#ArialMT-61" x="183.447266"/>
      <use xlink:href="#ArialMT-74" x="239.0625"/>
      <use xlink:href="#ArialMT-69" x="266.845703"/>
      <use xlink:href="#ArialMT-76" x="289.0625"/>
      <use xlink:href="#ArialMT-65" x="339.0625"/>
     </g>
    </g>
    <g id="patch_85">
     <path d="M 1464.059219 101.922969 
L 1486.059219 101.922969 
L 1486.059219 94.222969 
L 1464.059219 94.222969 
z
" style="fill: #36ada4; fill-opacity: 0.5; stroke: #ffffff; stroke-linejoin: miter"/>
    </g>
    <g id="text_21">
     <!-- Positive -->
     <g style="fill: #262626" transform="translate(1494.859219 101.922969)scale(0.11 -0.11)">
      <defs>
       <path id="ArialMT-50" d="M 494 0 
L 494 4581 
L 2222 4581 
Q 2678 4581 2919 4538 
Q 3256 4481 3484 4323 
Q 3713 4166 3852 3881 
Q 3991 3597 3991 3256 
Q 3991 2672 3619 2267 
Q 3247 1863 2275 1863 
L 1100 1863 
L 1100 0 
L 494 0 
z
M 1100 2403 
L 2284 2403 
Q 2872 2403 3119 2622 
Q 3366 2841 3366 3238 
Q 3366 3525 3220 3729 
Q 3075 3934 2838 4000 
Q 2684 4041 2272 4041 
L 1100 4041 
L 1100 2403 
z
" transform="scale(0.015625)"/>
       <path id="ArialMT-73" d="M 197 991 
L 753 1078 
Q 800 744 1014 566 
Q 1228 388 1613 388 
Q 2000 388 2187 545 
Q 2375 703 2375 916 
Q 2375 1106 2209 1216 
Q 2094 1291 1634 1406 
Q 1016 1563 777 1677 
Q 538 1791 414 1992 
Q 291 2194 291 2438 
Q 291 2659 392 2848 
Q 494 3038 669 3163 
Q 800 3259 1026 3326 
Q 1253 3394 1513 3394 
Q 1903 3394 2198 3281 
Q 2494 3169 2634 2976 
Q 2775 2784 2828 2463 
L 2278 2388 
Q 2241 2644 2061 2787 
Q 1881 2931 1553 2931 
Q 1166 2931 1000 2803 
Q 834 2675 834 2503 
Q 834 2394 903 2306 
Q 972 2216 1119 2156 
Q 1203 2125 1616 2013 
Q 2213 1853 2448 1751 
Q 2684 1650 2818 1456 
Q 2953 1263 2953 975 
Q 2953 694 2789 445 
Q 2625 197 2315 61 
Q 2006 -75 1616 -75 
Q 969 -75 630 194 
Q 291 463 197 991 
z
" transform="scale(0.015625)"/>
      </defs>
      <use xlink:href="#ArialMT-50"/>
      <use xlink:href="#ArialMT-6f" x="66.699219"/>
      <use xlink:href="#ArialMT-73" x="122.314453"/>
      <use xlink:href="#ArialMT-69" x="172.314453"/>
      <use xlink:href="#ArialMT-74" x="194.53125"/>
      <use xlink:href="#ArialMT-69" x="222.314453"/>
      <use xlink:href="#ArialMT-76" x="244.53125"/>
      <use xlink:href="#ArialMT-65" x="294.53125"/>
     </g>
    </g>
   </g>
  </g>
  <g id="text_22">
   <!-- Chances of CHD over Ages -->
   <g style="fill: #262626" transform="translate(741.723438 23.199375)scale(0.2 -0.2)">
    <defs>
     <path id="ArialMT-68" d="M 422 0 
L 422 4581 
L 984 4581 
L 984 2938 
Q 1378 3394 1978 3394 
Q 2347 3394 2619 3248 
Q 2891 3103 3008 2847 
Q 3125 2591 3125 2103 
L 3125 0 
L 2563 0 
L 2563 2103 
Q 2563 2525 2380 2717 
Q 2197 2909 1863 2909 
Q 1613 2909 1392 2779 
Q 1172 2650 1078 2428 
Q 984 2206 984 1816 
L 984 0 
L 422 0 
z
" transform="scale(0.015625)"/>
     <path id="ArialMT-63" d="M 2588 1216 
L 3141 1144 
Q 3050 572 2676 248 
Q 2303 -75 1759 -75 
Q 1078 -75 664 370 
Q 250 816 250 1647 
Q 250 2184 428 2587 
Q 606 2991 970 3192 
Q 1334 3394 1763 3394 
Q 2303 3394 2647 3120 
Q 2991 2847 3088 2344 
L 2541 2259 
Q 2463 2594 2264 2762 
Q 2066 2931 1784 2931 
Q 1359 2931 1093 2626 
Q 828 2322 828 1663 
Q 828 994 1084 691 
Q 1341 388 1753 388 
Q 2084 388 2306 591 
Q 2528 794 2588 1216 
z
" transform="scale(0.015625)"/>
     <path id="ArialMT-20" transform="scale(0.015625)"/>
     <path id="ArialMT-66" d="M 556 0 
L 556 2881 
L 59 2881 
L 59 3319 
L 556 3319 
L 556 3672 
Q 556 4006 616 4169 
Q 697 4388 901 4523 
Q 1106 4659 1475 4659 
Q 1713 4659 2000 4603 
L 1916 4113 
Q 1741 4144 1584 4144 
Q 1328 4144 1222 4034 
Q 1116 3925 1116 3625 
L 1116 3319 
L 1763 3319 
L 1763 2881 
L 1116 2881 
L 1116 0 
L 556 0 
z
" transform="scale(0.015625)"/>
     <path id="ArialMT-41" d="M -9 0 
L 1750 4581 
L 2403 4581 
L 4278 0 
L 3588 0 
L 3053 1388 
L 1138 1388 
L 634 0 
L -9 0 
z
M 1313 1881 
L 2866 1881 
L 2388 3150 
Q 2169 3728 2063 4100 
Q 1975 3659 1816 3225 
L 1313 1881 
z
" transform="scale(0.015625)"/>
    </defs>
    <use xlink:href="#ArialMT-43"/>
    <use xlink:href="#ArialMT-68" x="72.216797"/>
    <use xlink:href="#ArialMT-61" x="127.832031"/>
    <use xlink:href="#ArialMT-6e" x="183.447266"/>
    <use xlink:href="#ArialMT-63" x="239.0625"/>
    <use xlink:href="#ArialMT-65" x="289.0625"/>
    <use xlink:href="#ArialMT-73" x="344.677734"/>
    <use xlink:href="#ArialMT-20" x="394.677734"/>
    <use xlink:href="#ArialMT-6f" x="422.460938"/>
    <use xlink:href="#ArialMT-66" x="478.076172"/>
    <use xlink:href="#ArialMT-20" x="505.859375"/>
    <use xlink:href="#ArialMT-43" x="533.642578"/>
    <use xlink:href="#ArialMT-48" x="605.859375"/>
    <use xlink:href="#ArialMT-44" x="678.076172"/>
    <use xlink:href="#ArialMT-20" x="750.292969"/>
    <use xlink:href="#ArialMT-6f" x="778.076172"/>
    <use xlink:href="#ArialMT-76" x="833.691406"/>
    <use xlink:href="#ArialMT-65" x="883.691406"/>
    <use xlink:href="#ArialMT-72" x="939.306641"/>
    <use xlink:href="#ArialMT-20" x="972.607422"/>
    <use xlink:href="#ArialMT-41" x="994.890625"/>
    <use xlink:href="#ArialMT-67" x="1061.589844"/>
    <use xlink:href="#ArialMT-65" x="1117.205078"/>
    <use xlink:href="#ArialMT-73" x="1172.820312"/>
   </g>
  </g>
 </g>
 <defs>
  <clipPath id="p808cf59957">
   <rect x="216" y="51.84" width="1339.2" height="326.16"/>
  </clipPath>
 </defs>
</svg>
