<?xml version="1.0" encoding="utf-8" standalone="no"?>
<!DOCTYPE svg PUBLIC "-//W3C//DTD SVG 1.1//EN"
  "http://www.w3.org/Graphics/SVG/1.1/DTD/svg11.dtd">
<svg xmlns:xlink="http://www.w3.org/1999/xlink" width="1728pt" height="432pt" viewBox="0 0 1728 432" xmlns="http://www.w3.org/2000/svg" version="1.1">
 <metadata>
  <rdf:RDF xmlns:dc="http://purl.org/dc/elements/1.1/" xmlns:cc="http://creativecommons.org/ns#" xmlns:rdf="http://www.w3.org/1999/02/22-rdf-syntax-ns#">
   <cc:Work>
    <dc:type rdf:resource="http://purl.org/dc/dcmitype/StillImage"/>
    <dc:date>2022-07-31T03:17:21.336605</dc:date>
    <dc:format>image/svg+xml</dc:format>
    <dc:creator>
     <cc:Agent>
      <dc:title>Matplotlib v3.5.1, https://matplotlib.org/</dc:title>
     </cc:Agent>
    </dc:creator>
   </cc:Work>
  </rdf:RDF>
 </metadata>
 <defs>
  <style type="text/css">*{stroke-linejoin: round; stroke-linecap: butt}</style>
 </defs>
 <g id="figure_1">
  <g id="patch_1">
   <path d="M 0 432 
L 1728 432 
L 1728 0 
L 0 0 
z
" style="fill: #ffffff"/>
  </g>
  <g id="axes_1">
   <g id="patch_2">
    <path d="M 216 378 
L 1555.2 378 
L 1555.2 51.84 
L 216 51.84 
z
" style="fill: #eaeaf2"/>
   </g>
   <g id="matplotlib.axis_1">
    <g id="xtick_1">
     <g id="line2d_1">
      <path d="M 230.047552 378 
L 230.047552 51.84 
" clip-path="url(#p40e5f164b7)" style="fill: none; stroke: #ffffff; stroke-linecap: round"/>
     </g>
     <g id="text_1">
      <!-- 30 -->
      <g style="fill: #262626" transform="translate(223.930521 395.373594)scale(0.11 -0.11)">
       <defs>
        <path id="ArialMT-33" d="M 269 1209 
L 831 1284 
Q 928 806 1161 595 
Q 1394 384 1728 384 
Q 2125 384 2398 659 
Q 2672 934 2672 1341 
Q 2672 1728 2419 1979 
Q 2166 2231 1775 2231 
Q 1616 2231 1378 2169 
L 1441 2663 
Q 1497 2656 1531 2656 
Q 1891 2656 2178 2843 
Q 2466 3031 2466 3422 
Q 2466 3731 2256 3934 
Q 2047 4138 1716 4138 
Q 1388 4138 1169 3931 
Q 950 3725 888 3313 
L 325 3413 
Q 428 3978 793 4289 
Q 1159 4600 1703 4600 
Q 2078 4600 2393 4439 
Q 2709 4278 2876 4000 
Q 3044 3722 3044 3409 
Q 3044 3113 2884 2869 
Q 2725 2625 2413 2481 
Q 2819 2388 3044 2092 
Q 3269 1797 3269 1353 
Q 3269 753 2831 336 
Q 2394 -81 1725 -81 
Q 1122 -81 723 278 
Q 325 638 269 1209 
z
" transform="scale(0.015625)"/>
        <path id="ArialMT-30" d="M 266 2259 
Q 266 3072 433 3567 
Q 600 4063 929 4331 
Q 1259 4600 1759 4600 
Q 2128 4600 2406 4451 
Q 2684 4303 2865 4023 
Q 3047 3744 3150 3342 
Q 3253 2941 3253 2259 
Q 3253 1453 3087 958 
Q 2922 463 2592 192 
Q 2263 -78 1759 -78 
Q 1097 -78 719 397 
Q 266 969 266 2259 
z
M 844 2259 
Q 844 1131 1108 757 
Q 1372 384 1759 384 
Q 2147 384 2411 759 
Q 2675 1134 2675 2259 
Q 2675 3391 2411 3762 
Q 2147 4134 1753 4134 
Q 1366 4134 1134 3806 
Q 844 3388 844 2259 
z
" transform="scale(0.015625)"/>
       </defs>
       <use xlink:href="#ArialMT-33"/>
       <use xlink:href="#ArialMT-30" x="55.615234"/>
      </g>
     </g>
    </g>
    <g id="xtick_2">
     <g id="line2d_2">
      <path d="M 386.131469 378 
L 386.131469 51.84 
" clip-path="url(#p40e5f164b7)" style="fill: none; stroke: #ffffff; stroke-linecap: round"/>
     </g>
     <g id="text_2">
      <!-- 35 -->
      <g style="fill: #262626" transform="translate(380.014437 395.373594)scale(0.11 -0.11)">
       <defs>
        <path id="ArialMT-35" d="M 266 1200 
L 856 1250 
Q 922 819 1161 601 
Q 1400 384 1738 384 
Q 2144 384 2425 690 
Q 2706 997 2706 1503 
Q 2706 1984 2436 2262 
Q 2166 2541 1728 2541 
Q 1456 2541 1237 2417 
Q 1019 2294 894 2097 
L 366 2166 
L 809 4519 
L 3088 4519 
L 3088 3981 
L 1259 3981 
L 1013 2750 
Q 1425 3038 1878 3038 
Q 2478 3038 2890 2622 
Q 3303 2206 3303 1553 
Q 3303 931 2941 478 
Q 2500 -78 1738 -78 
Q 1113 -78 717 272 
Q 322 622 266 1200 
z
" transform="scale(0.015625)"/>
       </defs>
       <use xlink:href="#ArialMT-33"/>
       <use xlink:href="#ArialMT-35" x="55.615234"/>
      </g>
     </g>
    </g>
    <g id="xtick_3">
     <g id="line2d_3">
      <path d="M 542.215385 378 
L 542.215385 51.84 
" clip-path="url(#p40e5f164b7)" style="fill: none; stroke: #ffffff; stroke-linecap: round"/>
     </g>
     <g id="text_3">
      <!-- 40 -->
      <g style="fill: #262626" transform="translate(536.098353 395.373594)scale(0.11 -0.11)">
       <defs>
        <path id="ArialMT-34" d="M 2069 0 
L 2069 1097 
L 81 1097 
L 81 1613 
L 2172 4581 
L 2631 4581 
L 2631 1613 
L 3250 1613 
L 3250 1097 
L 2631 1097 
L 2631 0 
L 2069 0 
z
M 2069 1613 
L 2069 3678 
L 634 1613 
L 2069 1613 
z
" transform="scale(0.015625)"/>
       </defs>
       <use xlink:href="#ArialMT-34"/>
       <use xlink:href="#ArialMT-30" x="55.615234"/>
      </g>
     </g>
    </g>
    <g id="xtick_4">
     <g id="line2d_4">
      <path d="M 698.299301 378 
L 698.299301 51.84 
" clip-path="url(#p40e5f164b7)" style="fill: none; stroke: #ffffff; stroke-linecap: round"/>
     </g>
     <g id="text_4">
      <!-- 45 -->
      <g style="fill: #262626" transform="translate(692.182269 395.373594)scale(0.11 -0.11)">
       <use xlink:href="#ArialMT-34"/>
       <use xlink:href="#ArialMT-35" x="55.615234"/>
      </g>
     </g>
    </g>
    <g id="xtick_5">
     <g id="line2d_5">
      <path d="M 854.383217 378 
L 854.383217 51.84 
" clip-path="url(#p40e5f164b7)" style="fill: none; stroke: #ffffff; stroke-linecap: round"/>
     </g>
     <g id="text_5">
      <!-- 50 -->
      <g style="fill: #262626" transform="translate(848.266186 395.373594)scale(0.11 -0.11)">
       <use xlink:href="#ArialMT-35"/>
       <use xlink:href="#ArialMT-30" x="55.615234"/>
      </g>
     </g>
    </g>
    <g id="xtick_6">
     <g id="line2d_6">
      <path d="M 1010.467133 378 
L 1010.467133 51.84 
" clip-path="url(#p40e5f164b7)" style="fill: none; stroke: #ffffff; stroke-linecap: round"/>
     </g>
     <g id="text_6">
      <!-- 55 -->
      <g style="fill: #262626" transform="translate(1004.350102 395.373594)scale(0.11 -0.11)">
       <use xlink:href="#ArialMT-35"/>
       <use xlink:href="#ArialMT-35" x="55.615234"/>
      </g>
     </g>
    </g>
    <g id="xtick_7">
     <g id="line2d_7">
      <path d="M 1166.551049 378 
L 1166.551049 51.84 
" clip-path="url(#p40e5f164b7)" style="fill: none; stroke: #ffffff; stroke-linecap: round"/>
     </g>
     <g id="text_7">
      <!-- 60 -->
      <g style="fill: #262626" transform="translate(1160.434018 395.373594)scale(0.11 -0.11)">
       <defs>
        <path id="ArialMT-36" d="M 3184 3459 
L 2625 3416 
Q 2550 3747 2413 3897 
Q 2184 4138 1850 4138 
Q 1581 4138 1378 3988 
Q 1113 3794 959 3422 
Q 806 3050 800 2363 
Q 1003 2672 1297 2822 
Q 1591 2972 1913 2972 
Q 2475 2972 2870 2558 
Q 3266 2144 3266 1488 
Q 3266 1056 3080 686 
Q 2894 316 2569 119 
Q 2244 -78 1831 -78 
Q 1128 -78 684 439 
Q 241 956 241 2144 
Q 241 3472 731 4075 
Q 1159 4600 1884 4600 
Q 2425 4600 2770 4297 
Q 3116 3994 3184 3459 
z
M 888 1484 
Q 888 1194 1011 928 
Q 1134 663 1356 523 
Q 1578 384 1822 384 
Q 2178 384 2434 671 
Q 2691 959 2691 1453 
Q 2691 1928 2437 2201 
Q 2184 2475 1800 2475 
Q 1419 2475 1153 2201 
Q 888 1928 888 1484 
z
" transform="scale(0.015625)"/>
       </defs>
       <use xlink:href="#ArialMT-36"/>
       <use xlink:href="#ArialMT-30" x="55.615234"/>
      </g>
     </g>
    </g>
    <g id="xtick_8">
     <g id="line2d_8">
      <path d="M 1322.634965 378 
L 1322.634965 51.84 
" clip-path="url(#p40e5f164b7)" style="fill: none; stroke: #ffffff; stroke-linecap: round"/>
     </g>
     <g id="text_8">
      <!-- 65 -->
      <g style="fill: #262626" transform="translate(1316.517934 395.373594)scale(0.11 -0.11)">
       <use xlink:href="#ArialMT-36"/>
       <use xlink:href="#ArialMT-35" x="55.615234"/>
      </g>
     </g>
    </g>
    <g id="xtick_9">
     <g id="line2d_9">
      <path d="M 1478.718881 378 
L 1478.718881 51.84 
" clip-path="url(#p40e5f164b7)" style="fill: none; stroke: #ffffff; stroke-linecap: round"/>
     </g>
     <g id="text_9">
      <!-- 70 -->
      <g style="fill: #262626" transform="translate(1472.60185 395.373594)scale(0.11 -0.11)">
       <defs>
        <path id="ArialMT-37" d="M 303 3981 
L 303 4522 
L 3269 4522 
L 3269 4084 
Q 2831 3619 2401 2847 
Q 1972 2075 1738 1259 
Q 1569 684 1522 0 
L 944 0 
Q 953 541 1156 1306 
Q 1359 2072 1739 2783 
Q 2119 3494 2547 3981 
L 303 3981 
z
" transform="scale(0.015625)"/>
       </defs>
       <use xlink:href="#ArialMT-37"/>
       <use xlink:href="#ArialMT-30" x="55.615234"/>
      </g>
     </g>
    </g>
    <g id="text_10">
     <!-- age -->
     <g style="fill: #262626" transform="translate(875.590312 410.008594)scale(0.12 -0.12)">
      <defs>
       <path id="ArialMT-61" d="M 2588 409 
Q 2275 144 1986 34 
Q 1697 -75 1366 -75 
Q 819 -75 525 192 
Q 231 459 231 875 
Q 231 1119 342 1320 
Q 453 1522 633 1644 
Q 813 1766 1038 1828 
Q 1203 1872 1538 1913 
Q 2219 1994 2541 2106 
Q 2544 2222 2544 2253 
Q 2544 2597 2384 2738 
Q 2169 2928 1744 2928 
Q 1347 2928 1158 2789 
Q 969 2650 878 2297 
L 328 2372 
Q 403 2725 575 2942 
Q 747 3159 1072 3276 
Q 1397 3394 1825 3394 
Q 2250 3394 2515 3294 
Q 2781 3194 2906 3042 
Q 3031 2891 3081 2659 
Q 3109 2516 3109 2141 
L 3109 1391 
Q 3109 606 3145 398 
Q 3181 191 3288 0 
L 2700 0 
Q 2613 175 2588 409 
z
M 2541 1666 
Q 2234 1541 1622 1453 
Q 1275 1403 1131 1340 
Q 988 1278 909 1158 
Q 831 1038 831 891 
Q 831 666 1001 516 
Q 1172 366 1500 366 
Q 1825 366 2078 508 
Q 2331 650 2450 897 
Q 2541 1088 2541 1459 
L 2541 1666 
z
" transform="scale(0.015625)"/>
       <path id="ArialMT-67" d="M 319 -275 
L 866 -356 
Q 900 -609 1056 -725 
Q 1266 -881 1628 -881 
Q 2019 -881 2231 -725 
Q 2444 -569 2519 -288 
Q 2563 -116 2559 434 
Q 2191 0 1641 0 
Q 956 0 581 494 
Q 206 988 206 1678 
Q 206 2153 378 2554 
Q 550 2956 876 3175 
Q 1203 3394 1644 3394 
Q 2231 3394 2613 2919 
L 2613 3319 
L 3131 3319 
L 3131 450 
Q 3131 -325 2973 -648 
Q 2816 -972 2473 -1159 
Q 2131 -1347 1631 -1347 
Q 1038 -1347 672 -1080 
Q 306 -813 319 -275 
z
M 784 1719 
Q 784 1066 1043 766 
Q 1303 466 1694 466 
Q 2081 466 2343 764 
Q 2606 1063 2606 1700 
Q 2606 2309 2336 2618 
Q 2066 2928 1684 2928 
Q 1309 2928 1046 2623 
Q 784 2319 784 1719 
z
" transform="scale(0.015625)"/>
       <path id="ArialMT-65" d="M 2694 1069 
L 3275 997 
Q 3138 488 2766 206 
Q 2394 -75 1816 -75 
Q 1088 -75 661 373 
Q 234 822 234 1631 
Q 234 2469 665 2931 
Q 1097 3394 1784 3394 
Q 2450 3394 2872 2941 
Q 3294 2488 3294 1666 
Q 3294 1616 3291 1516 
L 816 1516 
Q 847 969 1125 678 
Q 1403 388 1819 388 
Q 2128 388 2347 550 
Q 2566 713 2694 1069 
z
M 847 1978 
L 2700 1978 
Q 2663 2397 2488 2606 
Q 2219 2931 1791 2931 
Q 1403 2931 1139 2672 
Q 875 2413 847 1978 
z
" transform="scale(0.015625)"/>
      </defs>
      <use xlink:href="#ArialMT-61"/>
      <use xlink:href="#ArialMT-67" x="55.615234"/>
      <use xlink:href="#ArialMT-65" x="111.230469"/>
     </g>
    </g>
   </g>
   <g id="matplotlib.axis_2">
    <g id="ytick_1">
     <g id="line2d_10">
      <path d="M 216 378 
L 1555.2 378 
" clip-path="url(#p40e5f164b7)" style="fill: none; stroke: #ffffff; stroke-linecap: round"/>
     </g>
     <g id="text_11">
      <!-- 0 -->
      <g style="fill: #262626" transform="translate(200.382969 381.936797)scale(0.11 -0.11)">
       <use xlink:href="#ArialMT-30"/>
      </g>
     </g>
    </g>
    <g id="ytick_2">
     <g id="line2d_11">
      <path d="M 216 340.118467 
L 1555.2 340.118467 
" clip-path="url(#p40e5f164b7)" style="fill: none; stroke: #ffffff; stroke-linecap: round"/>
     </g>
     <g id="text_12">
      <!-- 10 -->
      <g style="fill: #262626" transform="translate(194.265938 344.055264)scale(0.11 -0.11)">
       <defs>
        <path id="ArialMT-31" d="M 2384 0 
L 1822 0 
L 1822 3584 
Q 1619 3391 1289 3197 
Q 959 3003 697 2906 
L 697 3450 
Q 1169 3672 1522 3987 
Q 1875 4303 2022 4600 
L 2384 4600 
L 2384 0 
z
" transform="scale(0.015625)"/>
       </defs>
       <use xlink:href="#ArialMT-31"/>
       <use xlink:href="#ArialMT-30" x="55.615234"/>
      </g>
     </g>
    </g>
    <g id="ytick_3">
     <g id="line2d_12">
      <path d="M 216 302.236934 
L 1555.2 302.236934 
" clip-path="url(#p40e5f164b7)" style="fill: none; stroke: #ffffff; stroke-linecap: round"/>
     </g>
     <g id="text_13">
      <!-- 20 -->
      <g style="fill: #262626" transform="translate(194.265938 306.173731)scale(0.11 -0.11)">
       <defs>
        <path id="ArialMT-32" d="M 3222 541 
L 3222 0 
L 194 0 
Q 188 203 259 391 
Q 375 700 629 1000 
Q 884 1300 1366 1694 
Q 2113 2306 2375 2664 
Q 2638 3022 2638 3341 
Q 2638 3675 2398 3904 
Q 2159 4134 1775 4134 
Q 1369 4134 1125 3890 
Q 881 3647 878 3216 
L 300 3275 
Q 359 3922 746 4261 
Q 1134 4600 1788 4600 
Q 2447 4600 2831 4234 
Q 3216 3869 3216 3328 
Q 3216 3053 3103 2787 
Q 2991 2522 2730 2228 
Q 2469 1934 1863 1422 
Q 1356 997 1212 845 
Q 1069 694 975 541 
L 3222 541 
z
" transform="scale(0.015625)"/>
       </defs>
       <use xlink:href="#ArialMT-32"/>
       <use xlink:href="#ArialMT-30" x="55.615234"/>
      </g>
     </g>
    </g>
    <g id="ytick_4">
     <g id="line2d_13">
      <path d="M 216 264.355401 
L 1555.2 264.355401 
" clip-path="url(#p40e5f164b7)" style="fill: none; stroke: #ffffff; stroke-linecap: round"/>
     </g>
     <g id="text_14">
      <!-- 30 -->
      <g style="fill: #262626" transform="translate(194.265938 268.292198)scale(0.11 -0.11)">
       <use xlink:href="#ArialMT-33"/>
       <use xlink:href="#ArialMT-30" x="55.615234"/>
      </g>
     </g>
    </g>
    <g id="ytick_5">
     <g id="line2d_14">
      <path d="M 216 226.473868 
L 1555.2 226.473868 
" clip-path="url(#p40e5f164b7)" style="fill: none; stroke: #ffffff; stroke-linecap: round"/>
     </g>
     <g id="text_15">
      <!-- 40 -->
      <g style="fill: #262626" transform="translate(194.265938 230.410664)scale(0.11 -0.11)">
       <use xlink:href="#ArialMT-34"/>
       <use xlink:href="#ArialMT-30" x="55.615234"/>
      </g>
     </g>
    </g>
    <g id="ytick_6">
     <g id="line2d_15">
      <path d="M 216 188.592334 
L 1555.2 188.592334 
" clip-path="url(#p40e5f164b7)" style="fill: none; stroke: #ffffff; stroke-linecap: round"/>
     </g>
     <g id="text_16">
      <!-- 50 -->
      <g style="fill: #262626" transform="translate(194.265938 192.529131)scale(0.11 -0.11)">
       <use xlink:href="#ArialMT-35"/>
       <use xlink:href="#ArialMT-30" x="55.615234"/>
      </g>
     </g>
    </g>
    <g id="ytick_7">
     <g id="line2d_16">
      <path d="M 216 150.710801 
L 1555.2 150.710801 
" clip-path="url(#p40e5f164b7)" style="fill: none; stroke: #ffffff; stroke-linecap: round"/>
     </g>
     <g id="text_17">
      <!-- 60 -->
      <g style="fill: #262626" transform="translate(194.265938 154.647598)scale(0.11 -0.11)">
       <use xlink:href="#ArialMT-36"/>
       <use xlink:href="#ArialMT-30" x="55.615234"/>
      </g>
     </g>
    </g>
    <g id="ytick_8">
     <g id="line2d_17">
      <path d="M 216 112.829268 
L 1555.2 112.829268 
" clip-path="url(#p40e5f164b7)" style="fill: none; stroke: #ffffff; stroke-linecap: round"/>
     </g>
     <g id="text_18">
      <!-- 70 -->
      <g style="fill: #262626" transform="translate(194.265938 116.766065)scale(0.11 -0.11)">
       <use xlink:href="#ArialMT-37"/>
       <use xlink:href="#ArialMT-30" x="55.615234"/>
      </g>
     </g>
    </g>
    <g id="ytick_9">
     <g id="line2d_18">
      <path d="M 216 74.947735 
L 1555.2 74.947735 
" clip-path="url(#p40e5f164b7)" style="fill: none; stroke: #ffffff; stroke-linecap: round"/>
     </g>
     <g id="text_19">
      <!-- 80 -->
      <g style="fill: #262626" transform="translate(194.265938 78.884532)scale(0.11 -0.11)">
       <defs>
        <path id="ArialMT-38" d="M 1131 2484 
Q 781 2613 612 2850 
Q 444 3088 444 3419 
Q 444 3919 803 4259 
Q 1163 4600 1759 4600 
Q 2359 4600 2725 4251 
Q 3091 3903 3091 3403 
Q 3091 3084 2923 2848 
Q 2756 2613 2416 2484 
Q 2838 2347 3058 2040 
Q 3278 1734 3278 1309 
Q 3278 722 2862 322 
Q 2447 -78 1769 -78 
Q 1091 -78 675 323 
Q 259 725 259 1325 
Q 259 1772 486 2073 
Q 713 2375 1131 2484 
z
M 1019 3438 
Q 1019 3113 1228 2906 
Q 1438 2700 1772 2700 
Q 2097 2700 2305 2904 
Q 2513 3109 2513 3406 
Q 2513 3716 2298 3927 
Q 2084 4138 1766 4138 
Q 1444 4138 1231 3931 
Q 1019 3725 1019 3438 
z
M 838 1322 
Q 838 1081 952 856 
Q 1066 631 1291 507 
Q 1516 384 1775 384 
Q 2178 384 2440 643 
Q 2703 903 2703 1303 
Q 2703 1709 2433 1975 
Q 2163 2241 1756 2241 
Q 1359 2241 1098 1978 
Q 838 1716 838 1322 
z
" transform="scale(0.015625)"/>
       </defs>
       <use xlink:href="#ArialMT-38"/>
       <use xlink:href="#ArialMT-30" x="55.615234"/>
      </g>
     </g>
    </g>
    <g id="text_20">
     <!-- Count -->
     <g style="fill: #262626" transform="translate(187.880938 230.929688)rotate(-90)scale(0.12 -0.12)">
      <defs>
       <path id="ArialMT-43" d="M 3763 1606 
L 4369 1453 
Q 4178 706 3683 314 
Q 3188 -78 2472 -78 
Q 1731 -78 1267 223 
Q 803 525 561 1097 
Q 319 1669 319 2325 
Q 319 3041 592 3573 
Q 866 4106 1370 4382 
Q 1875 4659 2481 4659 
Q 3169 4659 3637 4309 
Q 4106 3959 4291 3325 
L 3694 3184 
Q 3534 3684 3231 3912 
Q 2928 4141 2469 4141 
Q 1941 4141 1586 3887 
Q 1231 3634 1087 3207 
Q 944 2781 944 2328 
Q 944 1744 1114 1308 
Q 1284 872 1643 656 
Q 2003 441 2422 441 
Q 2931 441 3284 734 
Q 3638 1028 3763 1606 
z
" transform="scale(0.015625)"/>
       <path id="ArialMT-6f" d="M 213 1659 
Q 213 2581 725 3025 
Q 1153 3394 1769 3394 
Q 2453 3394 2887 2945 
Q 3322 2497 3322 1706 
Q 3322 1066 3130 698 
Q 2938 331 2570 128 
Q 2203 -75 1769 -75 
Q 1072 -75 642 372 
Q 213 819 213 1659 
z
M 791 1659 
Q 791 1022 1069 705 
Q 1347 388 1769 388 
Q 2188 388 2466 706 
Q 2744 1025 2744 1678 
Q 2744 2294 2464 2611 
Q 2184 2928 1769 2928 
Q 1347 2928 1069 2612 
Q 791 2297 791 1659 
z
" transform="scale(0.015625)"/>
       <path id="ArialMT-75" d="M 2597 0 
L 2597 488 
Q 2209 -75 1544 -75 
Q 1250 -75 995 37 
Q 741 150 617 320 
Q 494 491 444 738 
Q 409 903 409 1263 
L 409 3319 
L 972 3319 
L 972 1478 
Q 972 1038 1006 884 
Q 1059 663 1231 536 
Q 1403 409 1656 409 
Q 1909 409 2131 539 
Q 2353 669 2445 892 
Q 2538 1116 2538 1541 
L 2538 3319 
L 3100 3319 
L 3100 0 
L 2597 0 
z
" transform="scale(0.015625)"/>
       <path id="ArialMT-6e" d="M 422 0 
L 422 3319 
L 928 3319 
L 928 2847 
Q 1294 3394 1984 3394 
Q 2284 3394 2536 3286 
Q 2788 3178 2913 3003 
Q 3038 2828 3088 2588 
Q 3119 2431 3119 2041 
L 3119 0 
L 2556 0 
L 2556 2019 
Q 2556 2363 2490 2533 
Q 2425 2703 2258 2804 
Q 2091 2906 1866 2906 
Q 1506 2906 1245 2678 
Q 984 2450 984 1813 
L 984 0 
L 422 0 
z
" transform="scale(0.015625)"/>
       <path id="ArialMT-74" d="M 1650 503 
L 1731 6 
Q 1494 -44 1306 -44 
Q 1000 -44 831 53 
Q 663 150 594 308 
Q 525 466 525 972 
L 525 2881 
L 113 2881 
L 113 3319 
L 525 3319 
L 525 4141 
L 1084 4478 
L 1084 3319 
L 1650 3319 
L 1650 2881 
L 1084 2881 
L 1084 941 
Q 1084 700 1114 631 
Q 1144 563 1211 522 
Q 1278 481 1403 481 
Q 1497 481 1650 503 
z
" transform="scale(0.015625)"/>
      </defs>
      <use xlink:href="#ArialMT-43"/>
      <use xlink:href="#ArialMT-6f" x="72.216797"/>
      <use xlink:href="#ArialMT-75" x="127.832031"/>
      <use xlink:href="#ArialMT-6e" x="183.447266"/>
      <use xlink:href="#ArialMT-74" x="239.0625"/>
     </g>
    </g>
   </g>
   <g id="patch_3">
    <path d="M 292.481119 378 
L 308.08951 378 
L 308.08951 374.211847 
L 292.481119 374.211847 
z
" clip-path="url(#p40e5f164b7)" style="fill: #36ada4; fill-opacity: 0.5; stroke: #ffffff; stroke-linejoin: miter"/>
   </g>
   <g id="patch_4">
    <path d="M 323.697902 378 
L 339.306294 378 
L 339.306294 370.423693 
L 323.697902 370.423693 
z
" clip-path="url(#p40e5f164b7)" style="fill: #36ada4; fill-opacity: 0.5; stroke: #ffffff; stroke-linejoin: miter"/>
   </g>
   <g id="patch_5">
    <path d="M 354.914685 378 
L 370.523077 378 
L 370.523077 351.482927 
L 354.914685 351.482927 
z
" clip-path="url(#p40e5f164b7)" style="fill: #36ada4; fill-opacity: 0.5; stroke: #ffffff; stroke-linejoin: miter"/>
   </g>
   <g id="patch_6">
    <path d="M 386.131469 378 
L 401.73986 378 
L 401.73986 313.601394 
L 386.131469 313.601394 
z
" clip-path="url(#p40e5f164b7)" style="fill: #36ada4; fill-opacity: 0.5; stroke: #ffffff; stroke-linejoin: miter"/>
   </g>
   <g id="patch_7">
    <path d="M 417.348252 378 
L 432.956643 378 
L 432.956643 249.202787 
L 417.348252 249.202787 
z
" clip-path="url(#p40e5f164b7)" style="fill: #36ada4; fill-opacity: 0.5; stroke: #ffffff; stroke-linejoin: miter"/>
   </g>
   <g id="patch_8">
    <path d="M 448.565035 378 
L 464.173427 378 
L 464.173427 207.533101 
L 448.565035 207.533101 
z
" clip-path="url(#p40e5f164b7)" style="fill: #36ada4; fill-opacity: 0.5; stroke: #ffffff; stroke-linejoin: miter"/>
   </g>
   <g id="patch_9">
    <path d="M 479.781818 378 
L 495.39021 378 
L 495.39021 154.498955 
L 479.781818 154.498955 
z
" clip-path="url(#p40e5f164b7)" style="fill: #36ada4; fill-opacity: 0.5; stroke: #ffffff; stroke-linejoin: miter"/>
   </g>
   <g id="patch_10">
    <path d="M 510.998601 378 
L 526.606993 378 
L 526.606993 109.041115 
L 510.998601 109.041115 
z
" clip-path="url(#p40e5f164b7)" style="fill: #36ada4; fill-opacity: 0.5; stroke: #ffffff; stroke-linejoin: miter"/>
   </g>
   <g id="patch_11">
    <path d="M 542.215385 378 
L 557.823776 378 
L 557.823776 67.371429 
L 542.215385 67.371429 
z
" clip-path="url(#p40e5f164b7)" style="fill: #36ada4; fill-opacity: 0.5; stroke: #ffffff; stroke-linejoin: miter"/>
   </g>
   <g id="patch_12">
    <path d="M 573.432168 378 
L 589.040559 378 
L 589.040559 120.405575 
L 573.432168 120.405575 
z
" clip-path="url(#p40e5f164b7)" style="fill: #36ada4; fill-opacity: 0.5; stroke: #ffffff; stroke-linejoin: miter"/>
   </g>
   <g id="patch_13">
    <path d="M 604.648951 378 
L 620.257343 378 
L 620.257343 93.888502 
L 604.648951 93.888502 
z
" clip-path="url(#p40e5f164b7)" style="fill: #36ada4; fill-opacity: 0.5; stroke: #ffffff; stroke-linejoin: miter"/>
   </g>
   <g id="patch_14">
    <path d="M 635.865734 378 
L 651.474126 378 
L 651.474126 127.981882 
L 635.865734 127.981882 
z
" clip-path="url(#p40e5f164b7)" style="fill: #36ada4; fill-opacity: 0.5; stroke: #ffffff; stroke-linejoin: miter"/>
   </g>
   <g id="patch_15">
    <path d="M 667.082517 378 
L 682.690909 378 
L 682.690909 101.464808 
L 667.082517 101.464808 
z
" clip-path="url(#p40e5f164b7)" style="fill: #36ada4; fill-opacity: 0.5; stroke: #ffffff; stroke-linejoin: miter"/>
   </g>
   <g id="patch_16">
    <path d="M 698.299301 378 
L 713.907692 378 
L 713.907692 120.405575 
L 698.299301 120.405575 
z
" clip-path="url(#p40e5f164b7)" style="fill: #36ada4; fill-opacity: 0.5; stroke: #ffffff; stroke-linejoin: miter"/>
   </g>
   <g id="patch_17">
    <path d="M 729.516084 378 
L 745.124476 378 
L 745.124476 97.676655 
L 729.516084 97.676655 
z
" clip-path="url(#p40e5f164b7)" style="fill: #36ada4; fill-opacity: 0.5; stroke: #ffffff; stroke-linejoin: miter"/>
   </g>
   <g id="patch_18">
    <path d="M 760.732867 378 
L 776.341259 378 
L 776.341259 162.075261 
L 760.732867 162.075261 
z
" clip-path="url(#p40e5f164b7)" style="fill: #36ada4; fill-opacity: 0.5; stroke: #ffffff; stroke-linejoin: miter"/>
   </g>
   <g id="patch_19">
    <path d="M 791.94965 378 
L 807.558042 378 
L 807.558042 173.439721 
L 791.94965 173.439721 
z
" clip-path="url(#p40e5f164b7)" style="fill: #36ada4; fill-opacity: 0.5; stroke: #ffffff; stroke-linejoin: miter"/>
   </g>
   <g id="patch_20">
    <path d="M 823.166434 378 
L 838.774825 378 
L 838.774825 203.744948 
L 823.166434 203.744948 
z
" clip-path="url(#p40e5f164b7)" style="fill: #36ada4; fill-opacity: 0.5; stroke: #ffffff; stroke-linejoin: miter"/>
   </g>
   <g id="patch_21">
    <path d="M 854.383217 378 
L 869.991608 378 
L 869.991608 192.380488 
L 854.383217 192.380488 
z
" clip-path="url(#p40e5f164b7)" style="fill: #36ada4; fill-opacity: 0.5; stroke: #ffffff; stroke-linejoin: miter"/>
   </g>
   <g id="patch_22">
    <path d="M 885.6 378 
L 901.208392 378 
L 901.208392 192.380488 
L 885.6 192.380488 
z
" clip-path="url(#p40e5f164b7)" style="fill: #36ada4; fill-opacity: 0.5; stroke: #ffffff; stroke-linejoin: miter"/>
   </g>
   <g id="patch_23">
    <path d="M 916.816783 378 
L 932.425175 378 
L 932.425175 222.685714 
L 916.816783 222.685714 
z
" clip-path="url(#p40e5f164b7)" style="fill: #36ada4; fill-opacity: 0.5; stroke: #ffffff; stroke-linejoin: miter"/>
   </g>
   <g id="patch_24">
    <path d="M 948.033566 378 
L 963.641958 378 
L 963.641958 215.109408 
L 948.033566 215.109408 
z
" clip-path="url(#p40e5f164b7)" style="fill: #36ada4; fill-opacity: 0.5; stroke: #ffffff; stroke-linejoin: miter"/>
   </g>
   <g id="patch_25">
    <path d="M 979.25035 378 
L 994.858741 378 
L 994.858741 241.626481 
L 979.25035 241.626481 
z
" clip-path="url(#p40e5f164b7)" style="fill: #36ada4; fill-opacity: 0.5; stroke: #ffffff; stroke-linejoin: miter"/>
   </g>
   <g id="patch_26">
    <path d="M 1010.467133 378 
L 1026.075524 378 
L 1026.075524 245.414634 
L 1010.467133 245.414634 
z
" clip-path="url(#p40e5f164b7)" style="fill: #36ada4; fill-opacity: 0.5; stroke: #ffffff; stroke-linejoin: miter"/>
   </g>
   <g id="patch_27">
    <path d="M 1041.683916 378 
L 1057.292308 378 
L 1057.292308 230.262021 
L 1041.683916 230.262021 
z
" clip-path="url(#p40e5f164b7)" style="fill: #36ada4; fill-opacity: 0.5; stroke: #ffffff; stroke-linejoin: miter"/>
   </g>
   <g id="patch_28">
    <path d="M 1072.900699 378 
L 1088.509091 378 
L 1088.509091 245.414634 
L 1072.900699 245.414634 
z
" clip-path="url(#p40e5f164b7)" style="fill: #36ada4; fill-opacity: 0.5; stroke: #ffffff; stroke-linejoin: miter"/>
   </g>
   <g id="patch_29">
    <path d="M 1104.117483 378 
L 1119.725874 378 
L 1119.725874 241.626481 
L 1104.117483 241.626481 
z
" clip-path="url(#p40e5f164b7)" style="fill: #36ada4; fill-opacity: 0.5; stroke: #ffffff; stroke-linejoin: miter"/>
   </g>
   <g id="patch_30">
    <path d="M 1135.334266 378 
L 1150.942657 378 
L 1150.942657 260.567247 
L 1135.334266 260.567247 
z
" clip-path="url(#p40e5f164b7)" style="fill: #36ada4; fill-opacity: 0.5; stroke: #ffffff; stroke-linejoin: miter"/>
   </g>
   <g id="patch_31">
    <path d="M 1166.551049 378 
L 1182.159441 378 
L 1182.159441 256.779094 
L 1166.551049 256.779094 
z
" clip-path="url(#p40e5f164b7)" style="fill: #36ada4; fill-opacity: 0.5; stroke: #ffffff; stroke-linejoin: miter"/>
   </g>
   <g id="patch_32">
    <path d="M 1197.767832 378 
L 1213.376224 378 
L 1213.376224 268.143554 
L 1197.767832 268.143554 
z
" clip-path="url(#p40e5f164b7)" style="fill: #36ada4; fill-opacity: 0.5; stroke: #ffffff; stroke-linejoin: miter"/>
   </g>
   <g id="patch_33">
    <path d="M 1228.984615 378 
L 1244.593007 378 
L 1244.593007 302.236934 
L 1228.984615 302.236934 
z
" clip-path="url(#p40e5f164b7)" style="fill: #36ada4; fill-opacity: 0.5; stroke: #ffffff; stroke-linejoin: miter"/>
   </g>
   <g id="patch_34">
    <path d="M 1260.201399 378 
L 1275.80979 378 
L 1275.80979 287.084321 
L 1260.201399 287.084321 
z
" clip-path="url(#p40e5f164b7)" style="fill: #36ada4; fill-opacity: 0.5; stroke: #ffffff; stroke-linejoin: miter"/>
   </g>
   <g id="patch_35">
    <path d="M 1291.418182 378 
L 1307.026573 378 
L 1307.026573 302.236934 
L 1291.418182 302.236934 
z
" clip-path="url(#p40e5f164b7)" style="fill: #36ada4; fill-opacity: 0.5; stroke: #ffffff; stroke-linejoin: miter"/>
   </g>
   <g id="patch_36">
    <path d="M 1322.634965 378 
L 1338.243357 378 
L 1338.243357 351.482927 
L 1322.634965 351.482927 
z
" clip-path="url(#p40e5f164b7)" style="fill: #36ada4; fill-opacity: 0.5; stroke: #ffffff; stroke-linejoin: miter"/>
   </g>
   <g id="patch_37">
    <path d="M 1353.851748 378 
L 1369.46014 378 
L 1369.46014 355.27108 
L 1353.851748 355.27108 
z
" clip-path="url(#p40e5f164b7)" style="fill: #36ada4; fill-opacity: 0.5; stroke: #ffffff; stroke-linejoin: miter"/>
   </g>
   <g id="patch_38">
    <path d="M 1385.068531 378 
L 1400.676923 378 
L 1400.676923 343.90662 
L 1385.068531 343.90662 
z
" clip-path="url(#p40e5f164b7)" style="fill: #36ada4; fill-opacity: 0.5; stroke: #ffffff; stroke-linejoin: miter"/>
   </g>
   <g id="patch_39">
    <path d="M 1416.285315 378 
L 1431.893706 378 
L 1431.893706 359.059233 
L 1416.285315 359.059233 
z
" clip-path="url(#p40e5f164b7)" style="fill: #36ada4; fill-opacity: 0.5; stroke: #ffffff; stroke-linejoin: miter"/>
   </g>
   <g id="patch_40">
    <path d="M 1447.502098 378 
L 1463.11049 378 
L 1463.11049 370.423693 
L 1447.502098 370.423693 
z
" clip-path="url(#p40e5f164b7)" style="fill: #36ada4; fill-opacity: 0.5; stroke: #ffffff; stroke-linejoin: miter"/>
   </g>
   <g id="patch_41">
    <path d="M 1478.718881 378 
L 1494.327273 378 
L 1494.327273 378 
L 1478.718881 378 
z
" clip-path="url(#p40e5f164b7)" style="fill: #36ada4; fill-opacity: 0.5; stroke: #ffffff; stroke-linejoin: miter"/>
   </g>
   <g id="patch_42">
    <path d="M 276.872727 378 
L 292.481119 378 
L 292.481119 378 
L 276.872727 378 
z
" clip-path="url(#p40e5f164b7)" style="fill: #f77189; fill-opacity: 0.5; stroke: #ffffff; stroke-linejoin: miter"/>
   </g>
   <g id="patch_43">
    <path d="M 308.08951 378 
L 323.697902 378 
L 323.697902 370.423693 
L 308.08951 370.423693 
z
" clip-path="url(#p40e5f164b7)" style="fill: #f77189; fill-opacity: 0.5; stroke: #ffffff; stroke-linejoin: miter"/>
   </g>
   <g id="patch_44">
    <path d="M 339.306294 378 
L 354.914685 378 
L 354.914685 355.27108 
L 339.306294 355.27108 
z
" clip-path="url(#p40e5f164b7)" style="fill: #f77189; fill-opacity: 0.5; stroke: #ffffff; stroke-linejoin: miter"/>
   </g>
   <g id="patch_45">
    <path d="M 370.523077 378 
L 386.131469 378 
L 386.131469 351.482927 
L 370.523077 351.482927 
z
" clip-path="url(#p40e5f164b7)" style="fill: #f77189; fill-opacity: 0.5; stroke: #ffffff; stroke-linejoin: miter"/>
   </g>
   <g id="patch_46">
    <path d="M 401.73986 378 
L 417.348252 378 
L 417.348252 249.202787 
L 401.73986 249.202787 
z
" clip-path="url(#p40e5f164b7)" style="fill: #f77189; fill-opacity: 0.5; stroke: #ffffff; stroke-linejoin: miter"/>
   </g>
   <g id="patch_47">
    <path d="M 432.956643 378 
L 448.565035 378 
L 448.565035 302.236934 
L 432.956643 302.236934 
z
" clip-path="url(#p40e5f164b7)" style="fill: #f77189; fill-opacity: 0.5; stroke: #ffffff; stroke-linejoin: miter"/>
   </g>
   <g id="patch_48">
    <path d="M 464.173427 378 
L 479.781818 378 
L 479.781818 211.321254 
L 464.173427 211.321254 
z
" clip-path="url(#p40e5f164b7)" style="fill: #f77189; fill-opacity: 0.5; stroke: #ffffff; stroke-linejoin: miter"/>
   </g>
   <g id="patch_49">
    <path d="M 495.39021 378 
L 510.998601 378 
L 510.998601 192.380488 
L 495.39021 192.380488 
z
" clip-path="url(#p40e5f164b7)" style="fill: #f77189; fill-opacity: 0.5; stroke: #ffffff; stroke-linejoin: miter"/>
   </g>
   <g id="patch_50">
    <path d="M 526.606993 378 
L 542.215385 378 
L 542.215385 196.168641 
L 526.606993 196.168641 
z
" clip-path="url(#p40e5f164b7)" style="fill: #f77189; fill-opacity: 0.5; stroke: #ffffff; stroke-linejoin: miter"/>
   </g>
   <g id="patch_51">
    <path d="M 557.823776 378 
L 573.432168 378 
L 573.432168 173.439721 
L 557.823776 173.439721 
z
" clip-path="url(#p40e5f164b7)" style="fill: #f77189; fill-opacity: 0.5; stroke: #ffffff; stroke-linejoin: miter"/>
   </g>
   <g id="patch_52">
    <path d="M 589.040559 378 
L 604.648951 378 
L 604.648951 173.439721 
L 589.040559 173.439721 
z
" clip-path="url(#p40e5f164b7)" style="fill: #f77189; fill-opacity: 0.5; stroke: #ffffff; stroke-linejoin: miter"/>
   </g>
   <g id="patch_53">
    <path d="M 620.257343 378 
L 635.865734 378 
L 635.865734 226.473868 
L 620.257343 226.473868 
z
" clip-path="url(#p40e5f164b7)" style="fill: #f77189; fill-opacity: 0.5; stroke: #ffffff; stroke-linejoin: miter"/>
   </g>
   <g id="patch_54">
    <path d="M 651.474126 378 
L 667.082517 378 
L 667.082517 218.897561 
L 651.474126 218.897561 
z
" clip-path="url(#p40e5f164b7)" style="fill: #f77189; fill-opacity: 0.5; stroke: #ffffff; stroke-linejoin: miter"/>
   </g>
   <g id="patch_55">
    <path d="M 682.690909 378 
L 698.299301 378 
L 698.299301 203.744948 
L 682.690909 203.744948 
z
" clip-path="url(#p40e5f164b7)" style="fill: #f77189; fill-opacity: 0.5; stroke: #ffffff; stroke-linejoin: miter"/>
   </g>
   <g id="patch_56">
    <path d="M 713.907692 378 
L 729.516084 378 
L 729.516084 173.439721 
L 713.907692 173.439721 
z
" clip-path="url(#p40e5f164b7)" style="fill: #f77189; fill-opacity: 0.5; stroke: #ffffff; stroke-linejoin: miter"/>
   </g>
   <g id="patch_57">
    <path d="M 745.124476 378 
L 760.732867 378 
L 760.732867 268.143554 
L 745.124476 268.143554 
z
" clip-path="url(#p40e5f164b7)" style="fill: #f77189; fill-opacity: 0.5; stroke: #ffffff; stroke-linejoin: miter"/>
   </g>
   <g id="patch_58">
    <path d="M 776.341259 378 
L 791.94965 378 
L 791.94965 150.710801 
L 776.341259 150.710801 
z
" clip-path="url(#p40e5f164b7)" style="fill: #f77189; fill-opacity: 0.5; stroke: #ffffff; stroke-linejoin: miter"/>
   </g>
   <g id="patch_59">
    <path d="M 807.558042 378 
L 823.166434 378 
L 823.166434 207.533101 
L 807.558042 207.533101 
z
" clip-path="url(#p40e5f164b7)" style="fill: #f77189; fill-opacity: 0.5; stroke: #ffffff; stroke-linejoin: miter"/>
   </g>
   <g id="patch_60">
    <path d="M 838.774825 378 
L 854.383217 378 
L 854.383217 184.804181 
L 838.774825 184.804181 
z
" clip-path="url(#p40e5f164b7)" style="fill: #f77189; fill-opacity: 0.5; stroke: #ffffff; stroke-linejoin: miter"/>
   </g>
   <g id="patch_61">
    <path d="M 869.991608 378 
L 885.6 378 
L 885.6 196.168641 
L 869.991608 196.168641 
z
" clip-path="url(#p40e5f164b7)" style="fill: #f77189; fill-opacity: 0.5; stroke: #ffffff; stroke-linejoin: miter"/>
   </g>
   <g id="patch_62">
    <path d="M 901.208392 378 
L 916.816783 378 
L 916.816783 150.710801 
L 901.208392 150.710801 
z
" clip-path="url(#p40e5f164b7)" style="fill: #f77189; fill-opacity: 0.5; stroke: #ffffff; stroke-linejoin: miter"/>
   </g>
   <g id="patch_63">
    <path d="M 932.425175 378 
L 948.033566 378 
L 948.033566 169.651568 
L 932.425175 169.651568 
z
" clip-path="url(#p40e5f164b7)" style="fill: #f77189; fill-opacity: 0.5; stroke: #ffffff; stroke-linejoin: miter"/>
   </g>
   <g id="patch_64">
    <path d="M 963.641958 378 
L 979.25035 378 
L 979.25035 146.922648 
L 963.641958 146.922648 
z
" clip-path="url(#p40e5f164b7)" style="fill: #f77189; fill-opacity: 0.5; stroke: #ffffff; stroke-linejoin: miter"/>
   </g>
   <g id="patch_65">
    <path d="M 994.858741 378 
L 1010.467133 378 
L 1010.467133 135.558188 
L 994.858741 135.558188 
z
" clip-path="url(#p40e5f164b7)" style="fill: #f77189; fill-opacity: 0.5; stroke: #ffffff; stroke-linejoin: miter"/>
   </g>
   <g id="patch_66">
    <path d="M 1026.075524 378 
L 1041.683916 378 
L 1041.683916 218.897561 
L 1026.075524 218.897561 
z
" clip-path="url(#p40e5f164b7)" style="fill: #f77189; fill-opacity: 0.5; stroke: #ffffff; stroke-linejoin: miter"/>
   </g>
   <g id="patch_67">
    <path d="M 1057.292308 378 
L 1072.900699 378 
L 1072.900699 192.380488 
L 1057.292308 192.380488 
z
" clip-path="url(#p40e5f164b7)" style="fill: #f77189; fill-opacity: 0.5; stroke: #ffffff; stroke-linejoin: miter"/>
   </g>
   <g id="patch_68">
    <path d="M 1088.509091 378 
L 1104.117483 378 
L 1104.117483 218.897561 
L 1088.509091 218.897561 
z
" clip-path="url(#p40e5f164b7)" style="fill: #f77189; fill-opacity: 0.5; stroke: #ffffff; stroke-linejoin: miter"/>
   </g>
   <g id="patch_69">
    <path d="M 1119.725874 378 
L 1135.334266 378 
L 1135.334266 207.533101 
L 1119.725874 207.533101 
z
" clip-path="url(#p40e5f164b7)" style="fill: #f77189; fill-opacity: 0.5; stroke: #ffffff; stroke-linejoin: miter"/>
   </g>
   <g id="patch_70">
    <path d="M 1150.942657 378 
L 1166.551049 378 
L 1166.551049 181.016028 
L 1150.942657 181.016028 
z
" clip-path="url(#p40e5f164b7)" style="fill: #f77189; fill-opacity: 0.5; stroke: #ffffff; stroke-linejoin: miter"/>
   </g>
   <g id="patch_71">
    <path d="M 1182.159441 378 
L 1197.767832 378 
L 1197.767832 211.321254 
L 1182.159441 211.321254 
z
" clip-path="url(#p40e5f164b7)" style="fill: #f77189; fill-opacity: 0.5; stroke: #ffffff; stroke-linejoin: miter"/>
   </g>
   <g id="patch_72">
    <path d="M 1213.376224 378 
L 1228.984615 378 
L 1228.984615 177.227875 
L 1213.376224 177.227875 
z
" clip-path="url(#p40e5f164b7)" style="fill: #f77189; fill-opacity: 0.5; stroke: #ffffff; stroke-linejoin: miter"/>
   </g>
   <g id="patch_73">
    <path d="M 1244.593007 378 
L 1260.201399 378 
L 1260.201399 158.287108 
L 1244.593007 158.287108 
z
" clip-path="url(#p40e5f164b7)" style="fill: #f77189; fill-opacity: 0.5; stroke: #ffffff; stroke-linejoin: miter"/>
   </g>
   <g id="patch_74">
    <path d="M 1275.80979 378 
L 1291.418182 378 
L 1291.418182 215.109408 
L 1275.80979 215.109408 
z
" clip-path="url(#p40e5f164b7)" style="fill: #f77189; fill-opacity: 0.5; stroke: #ffffff; stroke-linejoin: miter"/>
   </g>
   <g id="patch_75">
    <path d="M 1307.026573 378 
L 1322.634965 378 
L 1322.634965 268.143554 
L 1307.026573 268.143554 
z
" clip-path="url(#p40e5f164b7)" style="fill: #f77189; fill-opacity: 0.5; stroke: #ffffff; stroke-linejoin: miter"/>
   </g>
   <g id="patch_76">
    <path d="M 1338.243357 378 
L 1353.851748 378 
L 1353.851748 298.44878 
L 1338.243357 298.44878 
z
" clip-path="url(#p40e5f164b7)" style="fill: #f77189; fill-opacity: 0.5; stroke: #ffffff; stroke-linejoin: miter"/>
   </g>
   <g id="patch_77">
    <path d="M 1369.46014 378 
L 1385.068531 378 
L 1385.068531 309.81324 
L 1369.46014 309.81324 
z
" clip-path="url(#p40e5f164b7)" style="fill: #f77189; fill-opacity: 0.5; stroke: #ffffff; stroke-linejoin: miter"/>
   </g>
   <g id="patch_78">
    <path d="M 1400.676923 378 
L 1416.285315 378 
L 1416.285315 347.694774 
L 1400.676923 347.694774 
z
" clip-path="url(#p40e5f164b7)" style="fill: #f77189; fill-opacity: 0.5; stroke: #ffffff; stroke-linejoin: miter"/>
   </g>
   <g id="patch_79">
    <path d="M 1431.893706 378 
L 1447.502098 378 
L 1447.502098 370.423693 
L 1431.893706 370.423693 
z
" clip-path="url(#p40e5f164b7)" style="fill: #f77189; fill-opacity: 0.5; stroke: #ffffff; stroke-linejoin: miter"/>
   </g>
   <g id="patch_80">
    <path d="M 1463.11049 378 
L 1478.718881 378 
L 1478.718881 374.211847 
L 1463.11049 374.211847 
z
" clip-path="url(#p40e5f164b7)" style="fill: #f77189; fill-opacity: 0.5; stroke: #ffffff; stroke-linejoin: miter"/>
   </g>
   <g id="line2d_19">
    <path d="M 292.481119 364.509149 
L 298.442113 362.319451 
L 304.403106 359.857592 
L 310.3641 357.10481 
L 316.325094 354.043597 
L 322.286088 350.658164 
L 328.247082 346.934889 
L 334.208075 342.862762 
L 340.169069 338.433788 
L 346.130063 333.64333 
L 352.091057 328.490403 
L 358.05205 322.977874 
L 364.013044 317.112585 
L 369.974038 310.905383 
L 375.935032 304.371063 
L 381.896026 297.528236 
L 387.857019 290.399112 
L 393.818013 283.009242 
L 399.779007 275.387208 
L 411.700994 259.57413 
L 423.622982 243.236416 
L 447.466957 210.21958 
L 459.388945 194.190943 
L 465.349939 186.4403 
L 471.310932 178.918774 
L 477.271926 171.664701 
L 483.23292 164.71444 
L 489.193914 158.101776 
L 495.154907 151.857295 
L 501.115901 146.007747 
L 507.076895 140.575438 
L 513.037889 135.577682 
L 518.998883 131.026334 
L 524.959876 126.927464 
L 530.92087 123.281176 
L 536.881864 120.081605 
L 542.842858 117.3171 
L 548.803851 114.970606 
L 554.764845 113.020208 
L 560.725839 111.439857 
L 566.686833 110.200208 
L 572.647827 109.269571 
L 578.60882 108.614911 
L 584.569814 108.202872 
L 590.530808 108.000766 
L 596.491802 107.97752 
L 602.452795 108.104514 
L 614.374783 108.711247 
L 626.296771 109.665146 
L 638.218758 110.880726 
L 650.140746 112.343848 
L 662.062733 114.102951 
L 673.984721 116.251892 
L 679.945715 117.508632 
L 685.906708 118.906579 
L 691.867702 120.459292 
L 697.828696 122.178376 
L 703.78969 124.072738 
L 709.750683 126.147944 
L 715.711677 128.405714 
L 721.672671 130.843567 
L 727.633665 133.454643 
L 733.594659 136.227726 
L 739.555652 139.147438 
L 751.47764 145.346977 
L 763.399628 151.865984 
L 787.243603 165.009716 
L 799.16559 171.2405 
L 811.087578 177.052143 
L 817.048572 179.77706 
L 823.009565 182.376959 
L 834.931553 187.211447 
L 846.85354 191.606557 
L 858.775528 195.650123 
L 870.697516 199.445453 
L 888.580497 204.881416 
L 924.34646 215.458206 
L 942.229441 220.556799 
L 954.151428 223.775002 
L 966.073416 226.77935 
L 977.995404 229.523168 
L 989.917391 231.981578 
L 1001.839379 234.157168 
L 1013.761366 236.081097 
L 1031.644348 238.623042 
L 1067.41031 243.430332 
L 1079.332298 245.224652 
L 1091.254285 247.207913 
L 1103.176273 249.413733 
L 1115.098261 251.86337 
L 1127.020248 254.568918 
L 1138.942236 257.535921 
L 1150.864223 260.764827 
L 1162.786211 264.251497 
L 1174.708198 267.987622 
L 1186.630186 271.961987 
L 1198.552173 276.162927 
L 1210.474161 280.58138 
L 1222.396149 285.213027 
L 1234.318136 290.057672 
L 1246.240124 295.114717 
L 1258.162111 300.375052 
L 1276.045093 308.580388 
L 1311.811055 325.232236 
L 1323.733043 330.480083 
L 1335.65503 335.411608 
L 1347.577018 339.966784 
L 1359.499006 344.12545 
L 1371.420993 347.905786 
L 1383.342981 351.354284 
L 1395.264968 354.530383 
L 1407.186956 357.490242 
L 1419.108943 360.273905 
L 1431.030931 362.89863 
L 1442.952918 365.359105 
L 1454.874906 367.633326 
L 1466.796894 369.691677 
L 1478.718881 371.506408 
L 1478.718881 371.506408 
" clip-path="url(#p40e5f164b7)" style="fill: none; stroke: #36ada4; stroke-width: 1.5; stroke-linecap: round"/>
   </g>
   <g id="line2d_20">
    <path d="M 292.481119 367.289924 
L 298.442113 365.648914 
L 304.403106 363.823828 
L 310.3641 361.804895 
L 316.325094 359.583452 
L 322.286088 357.152197 
L 328.247082 354.505421 
L 334.208075 351.639222 
L 340.169069 348.55169 
L 346.130063 345.243047 
L 352.091057 341.715741 
L 358.05205 337.974485 
L 364.013044 334.026251 
L 369.974038 329.880194 
L 375.935032 325.547545 
L 381.896026 321.041446 
L 387.857019 316.376764 
L 399.779007 306.638456 
L 411.700994 296.477826 
L 429.583976 280.795614 
L 447.466957 265.091474 
L 459.388945 254.897699 
L 471.310932 245.125079 
L 477.271926 240.449167 
L 483.23292 235.940501 
L 489.193914 231.61838 
L 495.154907 227.501103 
L 501.115901 223.605741 
L 507.076895 219.947887 
L 513.037889 216.541413 
L 518.998883 213.398219 
L 524.959876 210.527993 
L 530.92087 207.937988 
L 536.881864 205.632823 
L 542.842858 203.614307 
L 548.803851 201.881309 
L 554.764845 200.429667 
L 560.725839 199.252148 
L 566.686833 198.338475 
L 572.647827 197.675414 
L 578.60882 197.246934 
L 584.569814 197.034448 
L 590.530808 197.017129 
L 596.491802 197.172296 
L 602.452795 197.475873 
L 614.374783 198.428061 
L 626.296771 199.673268 
L 650.140746 202.317242 
L 662.062733 203.432523 
L 673.984721 204.287874 
L 685.906708 204.840348 
L 697.828696 205.076677 
L 709.750683 205.002365 
L 721.672671 204.631653 
L 733.594659 203.980737 
L 745.516646 203.065066 
L 757.438634 201.899892 
L 769.360621 200.502147 
L 781.282609 198.891631 
L 793.204596 197.090285 
L 805.126584 195.119674 
L 823.009565 191.884805 
L 840.892547 188.350453 
L 858.775528 184.552384 
L 906.463478 174.05498 
L 918.385466 171.78399 
L 924.34646 170.784091 
L 930.307453 169.897694 
L 936.268447 169.14183 
L 942.229441 168.532704 
L 948.190435 168.085188 
L 954.151428 167.812311 
L 960.112422 167.724781 
L 966.073416 167.830535 
L 972.03441 168.134354 
L 977.995404 168.637552 
L 983.956397 169.337749 
L 989.917391 170.22876 
L 995.878385 171.300586 
L 1001.839379 172.539538 
L 1007.800372 173.92847 
L 1019.72236 177.072658 
L 1031.644348 180.542914 
L 1055.488323 187.606682 
L 1067.41031 190.789368 
L 1073.371304 192.217478 
L 1079.332298 193.51514 
L 1085.293292 194.670267 
L 1091.254285 195.674254 
L 1097.215279 196.522009 
L 1103.176273 197.211909 
L 1109.137267 197.745674 
L 1115.098261 198.128198 
L 1121.059254 198.367342 
L 1127.020248 198.473702 
L 1138.942236 198.342778 
L 1150.864223 197.866477 
L 1180.669192 196.286129 
L 1192.59118 196.027376 
L 1198.552173 196.088336 
L 1204.513167 196.314043 
L 1210.474161 196.732364 
L 1216.435155 197.370138 
L 1222.396149 198.252601 
L 1228.357142 199.402789 
L 1234.318136 200.84092 
L 1240.27913 202.583803 
L 1246.240124 204.644302 
L 1252.201117 207.030874 
L 1258.162111 209.74722 
L 1264.123105 212.79207 
L 1270.084099 216.159123 
L 1276.045093 219.837135 
L 1282.006086 223.81018 
L 1287.96708 228.058052 
L 1293.928074 232.556804 
L 1299.889068 237.279388 
L 1305.850061 242.196375 
L 1317.772049 252.488469 
L 1329.694037 263.178586 
L 1353.538012 284.790525 
L 1365.459999 295.301686 
L 1377.381987 305.40154 
L 1383.342981 310.259064 
L 1389.303974 314.9717 
L 1395.264968 319.528979 
L 1401.225962 323.921806 
L 1407.186956 328.142315 
L 1413.14795 332.183754 
L 1419.108943 336.04041 
L 1425.069937 339.707581 
L 1431.030931 343.181572 
L 1436.991925 346.459728 
L 1442.952918 349.540475 
L 1448.913912 352.423368 
L 1454.874906 355.109144 
L 1460.8359 357.599744 
L 1466.796894 359.898328 
L 1472.757887 362.009256 
L 1478.718881 363.938037 
L 1478.718881 363.938037 
" clip-path="url(#p40e5f164b7)" style="fill: none; stroke: #f77189; stroke-width: 1.5; stroke-linecap: round"/>
   </g>
   <g id="patch_81">
    <path d="M 216 378 
L 216 51.84 
" style="fill: none; stroke: #ffffff; stroke-width: 1.25; stroke-linejoin: miter; stroke-linecap: square"/>
   </g>
   <g id="patch_82">
    <path d="M 216 378 
L 1555.2 378 
" style="fill: none; stroke: #ffffff; stroke-width: 1.25; stroke-linejoin: miter; stroke-linecap: square"/>
   </g>
   <g id="text_21">
    <!-- Smokers count with respect to ages -->
    <g style="fill: #262626" transform="translate(727.201563 45.84)scale(0.2 -0.2)">
     <defs>
      <path id="ArialMT-53" d="M 288 1472 
L 859 1522 
Q 900 1178 1048 958 
Q 1197 738 1509 602 
Q 1822 466 2213 466 
Q 2559 466 2825 569 
Q 3091 672 3220 851 
Q 3350 1031 3350 1244 
Q 3350 1459 3225 1620 
Q 3100 1781 2813 1891 
Q 2628 1963 1997 2114 
Q 1366 2266 1113 2400 
Q 784 2572 623 2826 
Q 463 3081 463 3397 
Q 463 3744 659 4045 
Q 856 4347 1234 4503 
Q 1613 4659 2075 4659 
Q 2584 4659 2973 4495 
Q 3363 4331 3572 4012 
Q 3781 3694 3797 3291 
L 3216 3247 
Q 3169 3681 2898 3903 
Q 2628 4125 2100 4125 
Q 1550 4125 1298 3923 
Q 1047 3722 1047 3438 
Q 1047 3191 1225 3031 
Q 1400 2872 2139 2705 
Q 2878 2538 3153 2413 
Q 3553 2228 3743 1945 
Q 3934 1663 3934 1294 
Q 3934 928 3725 604 
Q 3516 281 3123 101 
Q 2731 -78 2241 -78 
Q 1619 -78 1198 103 
Q 778 284 539 648 
Q 300 1013 288 1472 
z
" transform="scale(0.015625)"/>
      <path id="ArialMT-6d" d="M 422 0 
L 422 3319 
L 925 3319 
L 925 2853 
Q 1081 3097 1340 3245 
Q 1600 3394 1931 3394 
Q 2300 3394 2536 3241 
Q 2772 3088 2869 2813 
Q 3263 3394 3894 3394 
Q 4388 3394 4653 3120 
Q 4919 2847 4919 2278 
L 4919 0 
L 4359 0 
L 4359 2091 
Q 4359 2428 4304 2576 
Q 4250 2725 4106 2815 
Q 3963 2906 3769 2906 
Q 3419 2906 3187 2673 
Q 2956 2441 2956 1928 
L 2956 0 
L 2394 0 
L 2394 2156 
Q 2394 2531 2256 2718 
Q 2119 2906 1806 2906 
Q 1569 2906 1367 2781 
Q 1166 2656 1075 2415 
Q 984 2175 984 1722 
L 984 0 
L 422 0 
z
" transform="scale(0.015625)"/>
      <path id="ArialMT-6b" d="M 425 0 
L 425 4581 
L 988 4581 
L 988 1969 
L 2319 3319 
L 3047 3319 
L 1778 2088 
L 3175 0 
L 2481 0 
L 1384 1697 
L 988 1316 
L 988 0 
L 425 0 
z
" transform="scale(0.015625)"/>
      <path id="ArialMT-72" d="M 416 0 
L 416 3319 
L 922 3319 
L 922 2816 
Q 1116 3169 1280 3281 
Q 1444 3394 1641 3394 
Q 1925 3394 2219 3213 
L 2025 2691 
Q 1819 2813 1613 2813 
Q 1428 2813 1281 2702 
Q 1134 2591 1072 2394 
Q 978 2094 978 1738 
L 978 0 
L 416 0 
z
" transform="scale(0.015625)"/>
      <path id="ArialMT-73" d="M 197 991 
L 753 1078 
Q 800 744 1014 566 
Q 1228 388 1613 388 
Q 2000 388 2187 545 
Q 2375 703 2375 916 
Q 2375 1106 2209 1216 
Q 2094 1291 1634 1406 
Q 1016 1563 777 1677 
Q 538 1791 414 1992 
Q 291 2194 291 2438 
Q 291 2659 392 2848 
Q 494 3038 669 3163 
Q 800 3259 1026 3326 
Q 1253 3394 1513 3394 
Q 1903 3394 2198 3281 
Q 2494 3169 2634 2976 
Q 2775 2784 2828 2463 
L 2278 2388 
Q 2241 2644 2061 2787 
Q 1881 2931 1553 2931 
Q 1166 2931 1000 2803 
Q 834 2675 834 2503 
Q 834 2394 903 2306 
Q 972 2216 1119 2156 
Q 1203 2125 1616 2013 
Q 2213 1853 2448 1751 
Q 2684 1650 2818 1456 
Q 2953 1263 2953 975 
Q 2953 694 2789 445 
Q 2625 197 2315 61 
Q 2006 -75 1616 -75 
Q 969 -75 630 194 
Q 291 463 197 991 
z
" transform="scale(0.015625)"/>
      <path id="ArialMT-20" transform="scale(0.015625)"/>
      <path id="ArialMT-63" d="M 2588 1216 
L 3141 1144 
Q 3050 572 2676 248 
Q 2303 -75 1759 -75 
Q 1078 -75 664 370 
Q 250 816 250 1647 
Q 250 2184 428 2587 
Q 606 2991 970 3192 
Q 1334 3394 1763 3394 
Q 2303 3394 2647 3120 
Q 2991 2847 3088 2344 
L 2541 2259 
Q 2463 2594 2264 2762 
Q 2066 2931 1784 2931 
Q 1359 2931 1093 2626 
Q 828 2322 828 1663 
Q 828 994 1084 691 
Q 1341 388 1753 388 
Q 2084 388 2306 591 
Q 2528 794 2588 1216 
z
" transform="scale(0.015625)"/>
      <path id="ArialMT-77" d="M 1034 0 
L 19 3319 
L 600 3319 
L 1128 1403 
L 1325 691 
Q 1338 744 1497 1375 
L 2025 3319 
L 2603 3319 
L 3100 1394 
L 3266 759 
L 3456 1400 
L 4025 3319 
L 4572 3319 
L 3534 0 
L 2950 0 
L 2422 1988 
L 2294 2553 
L 1622 0 
L 1034 0 
z
" transform="scale(0.015625)"/>
      <path id="ArialMT-69" d="M 425 3934 
L 425 4581 
L 988 4581 
L 988 3934 
L 425 3934 
z
M 425 0 
L 425 3319 
L 988 3319 
L 988 0 
L 425 0 
z
" transform="scale(0.015625)"/>
      <path id="ArialMT-68" d="M 422 0 
L 422 4581 
L 984 4581 
L 984 2938 
Q 1378 3394 1978 3394 
Q 2347 3394 2619 3248 
Q 2891 3103 3008 2847 
Q 3125 2591 3125 2103 
L 3125 0 
L 2563 0 
L 2563 2103 
Q 2563 2525 2380 2717 
Q 2197 2909 1863 2909 
Q 1613 2909 1392 2779 
Q 1172 2650 1078 2428 
Q 984 2206 984 1816 
L 984 0 
L 422 0 
z
" transform="scale(0.015625)"/>
      <path id="ArialMT-70" d="M 422 -1272 
L 422 3319 
L 934 3319 
L 934 2888 
Q 1116 3141 1344 3267 
Q 1572 3394 1897 3394 
Q 2322 3394 2647 3175 
Q 2972 2956 3137 2557 
Q 3303 2159 3303 1684 
Q 3303 1175 3120 767 
Q 2938 359 2589 142 
Q 2241 -75 1856 -75 
Q 1575 -75 1351 44 
Q 1128 163 984 344 
L 984 -1272 
L 422 -1272 
z
M 931 1641 
Q 931 1000 1190 694 
Q 1450 388 1819 388 
Q 2194 388 2461 705 
Q 2728 1022 2728 1688 
Q 2728 2322 2467 2637 
Q 2206 2953 1844 2953 
Q 1484 2953 1207 2617 
Q 931 2281 931 1641 
z
" transform="scale(0.015625)"/>
     </defs>
     <use xlink:href="#ArialMT-53"/>
     <use xlink:href="#ArialMT-6d" x="66.699219"/>
     <use xlink:href="#ArialMT-6f" x="150"/>
     <use xlink:href="#ArialMT-6b" x="205.615234"/>
     <use xlink:href="#ArialMT-65" x="255.615234"/>
     <use xlink:href="#ArialMT-72" x="311.230469"/>
     <use xlink:href="#ArialMT-73" x="344.53125"/>
     <use xlink:href="#ArialMT-20" x="394.53125"/>
     <use xlink:href="#ArialMT-63" x="422.314453"/>
     <use xlink:href="#ArialMT-6f" x="472.314453"/>
     <use xlink:href="#ArialMT-75" x="527.929688"/>
     <use xlink:href="#ArialMT-6e" x="583.544922"/>
     <use xlink:href="#ArialMT-74" x="639.160156"/>
     <use xlink:href="#ArialMT-20" x="666.943359"/>
     <use xlink:href="#ArialMT-77" x="694.726562"/>
     <use xlink:href="#ArialMT-69" x="766.943359"/>
     <use xlink:href="#ArialMT-74" x="789.160156"/>
     <use xlink:href="#ArialMT-68" x="816.943359"/>
     <use xlink:href="#ArialMT-20" x="872.558594"/>
     <use xlink:href="#ArialMT-72" x="900.341797"/>
     <use xlink:href="#ArialMT-65" x="933.642578"/>
     <use xlink:href="#ArialMT-73" x="989.257812"/>
     <use xlink:href="#ArialMT-70" x="1039.257812"/>
     <use xlink:href="#ArialMT-65" x="1094.873047"/>
     <use xlink:href="#ArialMT-63" x="1150.488281"/>
     <use xlink:href="#ArialMT-74" x="1200.488281"/>
     <use xlink:href="#ArialMT-20" x="1228.271484"/>
     <use xlink:href="#ArialMT-74" x="1256.054688"/>
     <use xlink:href="#ArialMT-6f" x="1283.837891"/>
     <use xlink:href="#ArialMT-20" x="1339.453125"/>
     <use xlink:href="#ArialMT-61" x="1367.236328"/>
     <use xlink:href="#ArialMT-67" x="1422.851562"/>
     <use xlink:href="#ArialMT-65" x="1478.466797"/>
     <use xlink:href="#ArialMT-73" x="1534.082031"/>
    </g>
   </g>
   <g id="legend_1">
    <g id="patch_83">
     <path d="M 1483.079375 108.374687 
L 1547.5 108.374687 
Q 1549.7 108.374687 1549.7 106.174688 
L 1549.7 59.54 
Q 1549.7 57.34 1547.5 57.34 
L 1483.079375 57.34 
Q 1480.879375 57.34 1480.879375 59.54 
L 1480.879375 106.174688 
Q 1480.879375 108.374687 1483.079375 108.374687 
z
" style="fill: #eaeaf2; opacity: 0.8; stroke: #cccccc; stroke-linejoin: miter"/>
    </g>
    <g id="text_22">
     <!-- is_smoking -->
     <g style="fill: #262626" transform="translate(1485.279375 70.329375)scale(0.12 -0.12)">
      <defs>
       <path id="ArialMT-5f" d="M -97 -1272 
L -97 -866 
L 3631 -866 
L 3631 -1272 
L -97 -1272 
z
" transform="scale(0.015625)"/>
      </defs>
      <use xlink:href="#ArialMT-69"/>
      <use xlink:href="#ArialMT-73" x="22.216797"/>
      <use xlink:href="#ArialMT-5f" x="72.216797"/>
      <use xlink:href="#ArialMT-73" x="127.832031"/>
      <use xlink:href="#ArialMT-6d" x="177.832031"/>
      <use xlink:href="#ArialMT-6f" x="261.132812"/>
      <use xlink:href="#ArialMT-6b" x="316.748047"/>
      <use xlink:href="#ArialMT-69" x="366.748047"/>
      <use xlink:href="#ArialMT-6e" x="388.964844"/>
      <use xlink:href="#ArialMT-67" x="444.580078"/>
     </g>
    </g>
    <g id="patch_84">
     <path d="M 1496.831172 86.228594 
L 1518.831172 86.228594 
L 1518.831172 78.528594 
L 1496.831172 78.528594 
z
" style="fill: #f77189; fill-opacity: 0.5; stroke: #ffffff; stroke-linejoin: miter"/>
    </g>
    <g id="text_23">
     <!-- 0 -->
     <g style="fill: #262626" transform="translate(1527.631172 86.228594)scale(0.11 -0.11)">
      <use xlink:href="#ArialMT-30"/>
     </g>
    </g>
    <g id="patch_85">
     <path d="M 1496.831172 101.788437 
L 1518.831172 101.788437 
L 1518.831172 94.088437 
L 1496.831172 94.088437 
z
" style="fill: #36ada4; fill-opacity: 0.5; stroke: #ffffff; stroke-linejoin: miter"/>
    </g>
    <g id="text_24">
     <!-- 1 -->
     <g style="fill: #262626" transform="translate(1527.631172 101.788437)scale(0.11 -0.11)">
      <use xlink:href="#ArialMT-31"/>
     </g>
    </g>
   </g>
  </g>
 </g>
 <defs>
  <clipPath id="p40e5f164b7">
   <rect x="216" y="51.84" width="1339.2" height="326.16"/>
  </clipPath>
 </defs>
</svg>
